<svg width="109" height="126" viewBox="0 0 109 126" fill="none" xmlns="http://www.w3.org/2000/svg">
<g clip-path="url(#clip0_406_174)">
<path d="M103.958 22H102.258C100.156 22 98.176 22.98 96.898 24.648L79.498 47.402L62.098 24.648C60.824 22.98 58.842 22 56.742 22H55.042L76.984 50.692L54.572 80H56.272C58.374 80 60.354 79.02 61.63 77.352L79.5 53.984L97.37 77.352C98.646 79.02 100.626 80 102.728 80H104.428L82.016 50.692L103.958 22ZM47.078 68.484C41.97 76.246 31.914 80.224 22.3 76.716C13.842 73.63 8.5 65.222 8.5 56.218V54H32.5H54.5V45.732C54.5 32.722 44.864 21.332 31.91 20.114C17.046 18.716 4.5 30.42 4.5 45V56.146C4.5 66.888 10.93 76.874 21.038 80.512C34.244 85.264 48.134 78.172 52.83 66H51.554C49.732 66 48.078 66.962 47.078 68.484ZM8.5 45C8.5 33.42 17.92 24 29.5 24C41.08 24 50.5 33.42 50.5 45V50H8.5V45Z" fill="black"/>
</g>
<path d="M2.22013 121V105.664H5.89213V121H2.22013ZM3.31213 121V117.868H12.9601V121H3.31213ZM4.36813 114.724V111.712H12.6721V114.724H4.36813ZM3.30013 108.76V105.664H12.8521V108.76H3.30013ZM14.1463 121L17.5543 114.364V115.36L14.2303 109.204H18.1783L20.1703 113.332H20.3983L22.3783 109.204H26.3143L23.0023 115.36V114.364L26.4103 121H22.4623L20.3983 116.668H20.1703L18.0943 121H14.1463ZM35.0688 121.276C34.3648 121.276 33.7728 121.16 33.2928 120.928C32.8128 120.696 32.4288 120.368 32.1408 119.944C31.8608 119.512 31.6608 119.012 31.5408 118.444H30.5928L31.4568 115.972C31.4728 116.46 31.5648 116.872 31.7328 117.208C31.9088 117.544 32.1568 117.804 32.4768 117.988C32.8048 118.164 33.1928 118.252 33.6408 118.252C34.3128 118.252 34.8208 118.056 35.1648 117.664C35.5168 117.264 35.6928 116.672 35.6928 115.888V114.208C35.6928 113.424 35.5208 112.836 35.1768 112.444C34.8408 112.052 34.3368 111.856 33.6648 111.856C33.2888 111.856 32.9448 111.928 32.6328 112.072C32.3288 112.216 32.0688 112.408 31.8528 112.648C31.6448 112.88 31.4928 113.148 31.3968 113.452L30.5568 111.76H31.5288C31.6488 111.232 31.8488 110.756 32.1288 110.332C32.4088 109.9 32.7968 109.56 33.2928 109.312C33.7888 109.056 34.4208 108.928 35.1888 108.928C36.5648 108.928 37.6048 109.38 38.3088 110.284C39.0208 111.18 39.3768 112.528 39.3768 114.328V115.768C39.3768 117.584 39.0208 118.956 38.3088 119.884C37.6048 120.812 36.5248 121.276 35.0688 121.276ZM27.8568 125.128V109.204H31.5048L31.3848 112.384L31.4568 112.804V117.34L31.4088 117.964L31.5048 121.12V125.128H27.8568ZM45.0506 114.376L44.0426 112.144H44.9066C45.0986 111.168 45.4706 110.404 46.0226 109.852C46.5826 109.292 47.3706 109.012 48.3866 109.012C48.5626 109.012 48.7226 109.024 48.8666 109.048C49.0186 109.072 49.1626 109.1 49.2986 109.132L49.4786 112.84C49.3106 112.792 49.1146 112.76 48.8906 112.744C48.6666 112.72 48.4386 112.708 48.2066 112.708C47.4226 112.708 46.7626 112.856 46.2266 113.152C45.6906 113.44 45.2986 113.848 45.0506 114.376ZM41.4506 121V109.204H44.9066L44.7506 112.972L45.1226 113.02V121H41.4506ZM56.6816 121.3C54.5376 121.3 52.9536 120.824 51.9296 119.872C50.9056 118.912 50.3936 117.516 50.3936 115.684V114.46C50.3936 112.652 50.8736 111.268 51.8336 110.308C52.7936 109.34 54.1896 108.856 56.0216 108.856C57.2536 108.856 58.2776 109.068 59.0936 109.492C59.9176 109.908 60.5336 110.504 60.9416 111.28C61.3576 112.056 61.5656 112.988 61.5656 114.076V114.472C61.5656 114.776 61.5496 115.088 61.5176 115.408C61.4936 115.72 61.4576 116.012 61.4096 116.284H58.0976C58.1296 115.82 58.1496 115.384 58.1576 114.976C58.1656 114.56 58.1696 114.184 58.1696 113.848C58.1696 113.36 58.0936 112.952 57.9416 112.624C57.7896 112.288 57.5536 112.032 57.2336 111.856C56.9216 111.68 56.5176 111.592 56.0216 111.592C55.2856 111.592 54.7456 111.792 54.4016 112.192C54.0656 112.584 53.8976 113.144 53.8976 113.872V114.952L53.9216 115.348V116.188C53.9216 116.492 53.9696 116.78 54.0656 117.052C54.1696 117.324 54.3456 117.564 54.5936 117.772C54.8496 117.972 55.1976 118.132 55.6376 118.252C56.0856 118.364 56.6536 118.42 57.3416 118.42C58.0696 118.42 58.7696 118.352 59.4416 118.216C60.1136 118.072 60.7576 117.88 61.3736 117.64L61.0736 120.4C60.5296 120.68 59.8856 120.9 59.1416 121.06C58.3976 121.22 57.5776 121.3 56.6816 121.3ZM52.3376 116.284V114.016H60.6656V116.284H52.3376ZM67.8224 121.288C66.8864 121.288 66.0424 121.204 65.2904 121.036C64.5384 120.876 63.8944 120.688 63.3584 120.472L63.0464 117.388C63.6624 117.644 64.3424 117.876 65.0864 118.084C65.8384 118.284 66.6504 118.384 67.5224 118.384C68.2184 118.384 68.7104 118.312 68.9984 118.168C69.2944 118.016 69.4424 117.784 69.4424 117.472V117.424C69.4424 117.208 69.3664 117.032 69.2144 116.896C69.0704 116.752 68.8144 116.624 68.4464 116.512C68.0864 116.4 67.5784 116.268 66.9224 116.116C65.9384 115.884 65.1584 115.612 64.5824 115.3C64.0064 114.98 63.5944 114.592 63.3464 114.136C63.1064 113.672 62.9864 113.124 62.9864 112.492V112.396C62.9864 111.228 63.4024 110.356 64.2344 109.78C65.0664 109.196 66.2904 108.904 67.9064 108.904C68.8184 108.904 69.6384 108.988 70.3664 109.156C71.0944 109.324 71.7064 109.524 72.2024 109.756L72.5144 112.624C71.9384 112.368 71.2944 112.156 70.5824 111.988C69.8784 111.82 69.1384 111.736 68.3624 111.736C67.8904 111.736 67.5184 111.768 67.2464 111.832C66.9824 111.896 66.7944 111.988 66.6824 112.108C66.5784 112.228 66.5264 112.376 66.5264 112.552V112.588C66.5264 112.78 66.5904 112.944 66.7184 113.08C66.8464 113.216 67.0784 113.344 67.4144 113.464C67.7584 113.584 68.2504 113.72 68.8904 113.872C69.8824 114.088 70.6824 114.336 71.2904 114.616C71.8984 114.888 72.3424 115.244 72.6224 115.684C72.9024 116.116 73.0424 116.692 73.0424 117.412V117.52C73.0424 118.792 72.6144 119.74 71.7584 120.364C70.9024 120.98 69.5904 121.288 67.8224 121.288ZM78.9553 121.288C78.0193 121.288 77.1753 121.204 76.4233 121.036C75.6713 120.876 75.0273 120.688 74.4913 120.472L74.1793 117.388C74.7953 117.644 75.4753 117.876 76.2193 118.084C76.9713 118.284 77.7833 118.384 78.6553 118.384C79.3513 118.384 79.8433 118.312 80.1313 118.168C80.4273 118.016 80.5753 117.784 80.5753 117.472V117.424C80.5753 117.208 80.4993 117.032 80.3473 116.896C80.2033 116.752 79.9473 116.624 79.5793 116.512C79.2193 116.4 78.7113 116.268 78.0553 116.116C77.0713 115.884 76.2913 115.612 75.7153 115.3C75.1393 114.98 74.7273 114.592 74.4793 114.136C74.2393 113.672 74.1193 113.124 74.1193 112.492V112.396C74.1193 111.228 74.5353 110.356 75.3673 109.78C76.1993 109.196 77.4233 108.904 79.0393 108.904C79.9513 108.904 80.7713 108.988 81.4993 109.156C82.2273 109.324 82.8393 109.524 83.3353 109.756L83.6473 112.624C83.0713 112.368 82.4273 112.156 81.7153 111.988C81.0113 111.82 80.2713 111.736 79.4953 111.736C79.0233 111.736 78.6513 111.768 78.3793 111.832C78.1153 111.896 77.9273 111.988 77.8153 112.108C77.7113 112.228 77.6593 112.376 77.6593 112.552V112.588C77.6593 112.78 77.7233 112.944 77.8513 113.08C77.9793 113.216 78.2113 113.344 78.5473 113.464C78.8913 113.584 79.3833 113.72 80.0233 113.872C81.0153 114.088 81.8153 114.336 82.4233 114.616C83.0313 114.888 83.4753 115.244 83.7553 115.684C84.0353 116.116 84.1753 116.692 84.1753 117.412V117.52C84.1753 118.792 83.7473 119.74 82.8913 120.364C82.0353 120.98 80.7233 121.288 78.9553 121.288ZM87.731 121.324C87.043 121.324 86.535 121.148 86.207 120.796C85.887 120.444 85.727 119.952 85.727 119.32V119.188C85.727 118.564 85.887 118.072 86.207 117.712C86.535 117.352 87.043 117.172 87.731 117.172C88.403 117.172 88.903 117.352 89.231 117.712C89.559 118.072 89.723 118.564 89.723 119.188V119.32C89.723 119.952 89.559 120.444 89.231 120.796C88.903 121.148 88.403 121.324 87.731 121.324ZM92.0921 119.032V109.204H95.7641V119.032H92.0921ZM93.9281 108.088C93.2481 108.088 92.7521 107.932 92.4401 107.62C92.1281 107.3 91.9721 106.872 91.9721 106.336V106.252C91.9721 105.716 92.1281 105.292 92.4401 104.98C92.7521 104.668 93.2481 104.512 93.9281 104.512C94.6081 104.512 95.1041 104.668 95.4161 104.98C95.7361 105.292 95.8961 105.716 95.8961 106.252V106.336C95.8961 106.88 95.7361 107.308 95.4161 107.62C95.1041 107.932 94.6081 108.088 93.9281 108.088ZM91.6601 125.332C91.3001 125.332 90.9681 125.308 90.6641 125.26C90.3521 125.22 90.0801 125.168 89.8481 125.104L89.5841 122.188C89.7441 122.244 89.9121 122.288 90.0881 122.32C90.2561 122.352 90.4321 122.368 90.6161 122.368C91.2081 122.368 91.6001 122.212 91.7921 121.9C91.9921 121.588 92.0921 121.156 92.0921 120.604V118.324H95.7641V120.856C95.7641 121.76 95.6321 122.544 95.3681 123.208C95.1121 123.88 94.6841 124.4 94.0841 124.768C93.4841 125.144 92.6761 125.332 91.6601 125.332ZM102.416 121.288C101.48 121.288 100.636 121.204 99.8842 121.036C99.1322 120.876 98.4882 120.688 97.9522 120.472L97.6402 117.388C98.2562 117.644 98.9362 117.876 99.6802 118.084C100.432 118.284 101.244 118.384 102.116 118.384C102.812 118.384 103.304 118.312 103.592 118.168C103.888 118.016 104.036 117.784 104.036 117.472V117.424C104.036 117.208 103.96 117.032 103.808 116.896C103.664 116.752 103.408 116.624 103.04 116.512C102.68 116.4 102.172 116.268 101.516 116.116C100.532 115.884 99.7522 115.612 99.1762 115.3C98.6002 114.98 98.1882 114.592 97.9402 114.136C97.7002 113.672 97.5802 113.124 97.5802 112.492V112.396C97.5802 111.228 97.9962 110.356 98.8282 109.78C99.6602 109.196 100.884 108.904 102.5 108.904C103.412 108.904 104.232 108.988 104.96 109.156C105.688 109.324 106.3 109.524 106.796 109.756L107.108 112.624C106.532 112.368 105.888 112.156 105.176 111.988C104.472 111.82 103.732 111.736 102.956 111.736C102.484 111.736 102.112 111.768 101.84 111.832C101.576 111.896 101.388 111.988 101.276 112.108C101.172 112.228 101.12 112.376 101.12 112.552V112.588C101.12 112.78 101.184 112.944 101.312 113.08C101.44 113.216 101.672 113.344 102.008 113.464C102.352 113.584 102.844 113.72 103.484 113.872C104.476 114.088 105.276 114.336 105.884 114.616C106.492 114.888 106.936 115.244 107.216 115.684C107.496 116.116 107.636 116.692 107.636 117.412V117.52C107.636 118.792 107.208 119.74 106.352 120.364C105.496 120.98 104.184 121.288 102.416 121.288Z" fill="black"/>
<defs>
<clipPath id="clip0_406_174">
<rect width="100" height="100" fill="white" transform="translate(4.5)"/>
</clipPath>
</defs>
</svg>
