<svg width="102" height="126" viewBox="0 0 102 126" fill="none" xmlns="http://www.w3.org/2000/svg">
<path d="M87 34.6C87 75.6 51 88 51 88C51 88 15 75.6 15 34.6C15 29.6 15.4 25.4 15.8 22C16.4 17 19.8 13 24.6 11.8C30.8 10 40.6 8 51 8C61.4 8 71.2 10 77.6 11.8C82.4 13 85.8 17.2 86.4 22C86.6 25.4 87 29.8 87 34.6Z" fill="#5D4037"/>
<path d="M51 14C60.8 14 70 16 76 17.6C78.4 18.2 80 20.2 80.4 22.8C80.8 26.6 81 30.6 81 34.6C81 65.8 58 78.4 51 81.4C44 78.2 21 65.6 21 34.6C21 30.6 21.2 26.6 21.6 22.8C21.8 20.2 23.6 18.2 26 17.6C32 16 41.2 14 51 14ZM51 8C40.6 8 30.8 10 24.4 11.8C19.8 13 16.2 17.2 15.8 22C15.4 25.4 15 29.8 15 34.6C15 75.6 51 88 51 88C51 88 87 75.6 87 34.6C87 29.6 86.6 25.4 86.2 22C85.6 17 82.2 13 77.4 11.8C71.2 10 61.4 8 51 8Z" fill="#4CAF50"/>
<path d="M49 56H53V72H49V56Z" fill="#DCEDC8"/>
<path d="M51 20C51 20 39 30 39 46C39 56.4 45.6 63 49 66L51 60L53 66C56.4 63 63 56.4 63 46C63 30 51 20 51 20Z" fill="#4CAF50"/>
<path d="M51 20C51 20 39 30 39 46C39 56.4 45.6 63 49 66L51 60V20Z" fill="#81C784"/>
<path d="M2.9115 121L3.3915 105.664H8.6235L11.1555 114.808H11.3115L13.8435 105.664H19.0755L19.5555 121H15.9195L15.8115 115.972L15.7035 109.852H15.5235L12.8955 119.2H9.5595L6.9315 109.852H6.7395L6.6435 115.984L6.5475 121H2.9115ZM27.2828 121.336C25.3788 121.336 23.9388 120.864 22.9628 119.92C21.9948 118.968 21.5107 117.632 21.5107 115.912V114.364C21.5107 112.62 21.9988 111.268 22.9748 110.308C23.9508 109.34 25.3868 108.856 27.2828 108.856C29.1788 108.856 30.6108 109.34 31.5788 110.308C32.5548 111.268 33.0428 112.62 33.0428 114.364V115.912C33.0428 117.632 32.5588 118.968 31.5908 119.92C30.6228 120.864 29.1868 121.336 27.2828 121.336ZM27.2828 118.444C27.9628 118.444 28.4788 118.24 28.8308 117.832C29.1908 117.416 29.3708 116.828 29.3708 116.068V114.208C29.3708 113.408 29.1908 112.8 28.8308 112.384C28.4788 111.968 27.9628 111.76 27.2828 111.76C26.6028 111.76 26.0828 111.968 25.7228 112.384C25.3708 112.8 25.1948 113.408 25.1948 114.208V116.068C25.1948 116.828 25.3708 117.416 25.7228 117.832C26.0828 118.24 26.6028 118.444 27.2828 118.444ZM42.6518 121V114.064C42.6518 113.632 42.5958 113.26 42.4838 112.948C42.3718 112.628 42.1838 112.384 41.9198 112.216C41.6558 112.048 41.2958 111.964 40.8398 111.964C40.4638 111.964 40.1318 112.032 39.8438 112.168C39.5558 112.296 39.3118 112.476 39.1118 112.708C38.9198 112.932 38.7758 113.188 38.6798 113.476L38.1158 111.76H38.7398C38.8678 111.224 39.0758 110.744 39.3638 110.32C39.6598 109.896 40.0638 109.56 40.5758 109.312C41.0878 109.056 41.7358 108.928 42.5198 108.928C43.3998 108.928 44.1198 109.1 44.6798 109.444C45.2398 109.78 45.6518 110.284 45.9158 110.956C46.1878 111.628 46.3238 112.468 46.3238 113.476V121H42.6518ZM35.0678 121V109.204H38.7158L38.5958 112.156L38.7398 112.504V121H35.0678ZM53.8815 117.328C51.9855 117.328 50.5615 116.976 49.6095 116.272C48.6575 115.568 48.1815 114.58 48.1815 113.308V113.152C48.1815 112.288 48.3735 111.56 48.7575 110.968C49.1495 110.368 49.7495 109.904 50.5575 109.576C51.3655 109.248 52.4015 109.052 53.6655 108.988L59.9655 108.7V111.292L56.8335 111.208V111.328C57.3695 111.416 57.8095 111.568 58.1535 111.784C58.5055 111.992 58.7655 112.268 58.9335 112.612C59.1095 112.948 59.1975 113.364 59.1975 113.86V113.944C59.1975 115.04 58.7615 115.88 57.8895 116.464C57.0255 117.04 55.6895 117.328 53.8815 117.328ZM53.7015 122.908H54.0615C54.6375 122.908 55.1015 122.872 55.4535 122.8C55.8135 122.728 56.0775 122.62 56.2455 122.476C56.4135 122.332 56.4975 122.152 56.4975 121.936V121.912C56.4975 121.632 56.3775 121.432 56.1375 121.312C55.9055 121.192 55.5535 121.112 55.0815 121.072L51.6015 120.724L52.4055 120.676C52.1655 120.716 51.9575 120.784 51.7815 120.88C51.6135 120.976 51.4775 121.096 51.3735 121.24C51.2775 121.384 51.2295 121.56 51.2295 121.768V121.792C51.2295 122.032 51.3175 122.236 51.4935 122.404C51.6695 122.572 51.9375 122.696 52.2975 122.776C52.6655 122.864 53.1335 122.908 53.7015 122.908ZM53.5215 125.596C52.3375 125.596 51.3255 125.5 50.4855 125.308C49.6535 125.124 49.0215 124.828 48.5895 124.42C48.1575 124.012 47.9415 123.472 47.9415 122.8V122.752C47.9415 122.296 48.0415 121.912 48.2415 121.6C48.4415 121.288 48.7295 121.044 49.1055 120.868C49.4815 120.692 49.9215 120.584 50.4255 120.544V120.424C49.8095 120.312 49.3335 120.116 48.9975 119.836C48.6695 119.556 48.5055 119.164 48.5055 118.66V118.648C48.5055 118.288 48.5855 117.984 48.7455 117.736C48.9135 117.488 49.1575 117.3 49.4775 117.172C49.7975 117.036 50.1895 116.956 50.6535 116.932V116.536L53.3655 117.22L52.5735 117.208C52.2935 117.208 52.0935 117.244 51.9735 117.316C51.8615 117.388 51.8055 117.496 51.8055 117.64V117.652C51.8055 117.828 51.8975 117.956 52.0815 118.036C52.2735 118.108 52.5815 118.168 53.0055 118.216L55.8015 118.54C57.1615 118.7 58.1735 119.036 58.8375 119.548C59.5015 120.06 59.8335 120.852 59.8335 121.924V121.996C59.8335 122.812 59.6015 123.484 59.1375 124.012C58.6815 124.548 58.0175 124.944 57.1455 125.2C56.2815 125.464 55.2255 125.596 53.9775 125.596H53.5215ZM53.7615 114.856C54.2335 114.856 54.6215 114.796 54.9255 114.676C55.2375 114.548 55.4695 114.364 55.6215 114.124C55.7815 113.876 55.8615 113.58 55.8615 113.236V113.128C55.8615 112.784 55.7855 112.492 55.6335 112.252C55.4815 112.012 55.2495 111.832 54.9375 111.712C54.6335 111.584 54.2415 111.52 53.7615 111.52H53.7495C53.2615 111.52 52.8615 111.584 52.5495 111.712C52.2375 111.84 52.0055 112.024 51.8535 112.264C51.7095 112.504 51.6375 112.796 51.6375 113.14V113.236C51.6375 113.58 51.7135 113.876 51.8655 114.124C52.0255 114.364 52.2615 114.548 52.5735 114.676C52.8855 114.796 53.2815 114.856 53.7615 114.856ZM66.564 121.336C64.66 121.336 63.22 120.864 62.244 119.92C61.276 118.968 60.792 117.632 60.792 115.912V114.364C60.792 112.62 61.28 111.268 62.256 110.308C63.232 109.34 64.668 108.856 66.564 108.856C68.46 108.856 69.892 109.34 70.86 110.308C71.836 111.268 72.324 112.62 72.324 114.364V115.912C72.324 117.632 71.84 118.968 70.872 119.92C69.904 120.864 68.468 121.336 66.564 121.336ZM66.564 118.444C67.244 118.444 67.76 118.24 68.112 117.832C68.472 117.416 68.652 116.828 68.652 116.068V114.208C68.652 113.408 68.472 112.8 68.112 112.384C67.76 111.968 67.244 111.76 66.564 111.76C65.884 111.76 65.364 111.968 65.004 112.384C64.652 112.8 64.476 113.408 64.476 114.208V116.068C64.476 116.828 64.652 117.416 65.004 117.832C65.364 118.24 65.884 118.444 66.564 118.444ZM78.153 121.276C76.777 121.276 75.733 120.824 75.021 119.92C74.317 119.016 73.965 117.672 73.965 115.888V114.436C73.965 112.62 74.321 111.248 75.033 110.32C75.745 109.392 76.821 108.928 78.261 108.928C78.965 108.928 79.553 109.044 80.025 109.276C80.497 109.508 80.873 109.836 81.153 110.26C81.441 110.684 81.641 111.184 81.753 111.76H82.749L81.885 114.136C81.869 113.648 81.773 113.236 81.597 112.9C81.421 112.564 81.173 112.308 80.853 112.132C80.541 111.948 80.161 111.856 79.713 111.856C79.041 111.856 78.529 112.052 78.177 112.444C77.825 112.836 77.649 113.424 77.649 114.208V115.9C77.649 116.676 77.825 117.264 78.177 117.664C78.537 118.056 79.065 118.252 79.761 118.252C80.129 118.252 80.457 118.184 80.745 118.048C81.041 117.912 81.289 117.724 81.489 117.484C81.697 117.244 81.849 116.972 81.945 116.668L82.845 118.444H81.813C81.693 118.972 81.493 119.452 81.213 119.884C80.933 120.316 80.545 120.656 80.049 120.904C79.553 121.152 78.921 121.276 78.153 121.276ZM81.837 121L81.945 118.012L81.885 117.388V112.612V112.096L81.837 108.676V105.148H85.485V121H81.837ZM95.1548 121.276C94.4508 121.276 93.8588 121.16 93.3788 120.928C92.8988 120.696 92.5148 120.368 92.2268 119.944C91.9388 119.512 91.7348 119.012 91.6148 118.444H90.6668L91.5428 115.972C91.5588 116.46 91.6548 116.872 91.8308 117.208C92.0068 117.544 92.2588 117.804 92.5868 117.988C92.9148 118.164 93.2988 118.252 93.7388 118.252C94.4108 118.252 94.9188 118.056 95.2628 117.664C95.6068 117.264 95.7788 116.668 95.7788 115.876V114.208C95.7788 113.424 95.6068 112.836 95.2628 112.444C94.9268 112.052 94.4228 111.856 93.7508 111.856C93.3748 111.856 93.0308 111.928 92.7188 112.072C92.4148 112.216 92.1548 112.408 91.9388 112.648C91.7308 112.88 91.5788 113.148 91.4828 113.452L90.6548 111.76H91.6628C91.7828 111.232 91.9788 110.756 92.2508 110.332C92.5228 109.9 92.9028 109.56 93.3908 109.312C93.8868 109.056 94.5148 108.928 95.2748 108.928C96.6508 108.928 97.6908 109.38 98.3948 110.284C99.1068 111.18 99.4628 112.528 99.4628 114.328V115.768C99.4628 117.584 99.1068 118.956 98.3948 119.884C97.6828 120.812 96.6028 121.276 95.1548 121.276ZM87.9428 121V105.148H91.5908V108.676L91.5308 112.456L91.5428 112.78V117.304L91.4828 118.012L91.5908 121H87.9428Z" fill="black"/>
</svg>
