<svg width="105" height="105" viewBox="0 0 105 105" fill="none" xmlns="http://www.w3.org/2000/svg">
<path d="M37.6338 41.8293L26.8997 47.7684C26.4972 47.9893 26.25 48.4006 26.25 48.8447V60.7293C26.25 61.1734 26.4972 61.5825 26.8997 61.8056L37.6359 67.749C38.0362 67.97 38.5328 67.97 38.9331 67.749L49.6672 61.8056C50.0653 61.5825 50.3125 61.1734 50.3125 60.7293V48.8447C50.3125 48.4006 50.0653 47.9915 49.6628 47.7684L38.9309 41.8293C38.7297 41.7178 38.5044 41.6631 38.2812 41.6631C38.0559 41.6631 37.8328 41.7178 37.6316 41.8293M92.8616 52.5284L91.0722 53.5171C91.0044 53.5543 90.965 53.6222 90.965 53.6965V55.6784C90.965 55.7528 91.0066 55.8206 91.0722 55.8578L92.8616 56.8487C92.9294 56.8859 93.0103 56.8859 93.0781 56.8487L94.8675 55.8578C94.9331 55.8206 94.9747 55.7528 94.9747 55.6784V53.6965C94.9747 53.6222 94.9331 53.5543 94.8653 53.5171L93.0759 52.5284C93.0431 52.5087 93.0059 52.5 92.9688 52.5C92.9316 52.5 92.8944 52.5087 92.8616 52.5284Z" fill="#388E3C"/>
<path d="M78.2053 29.2337L72.9794 26.3178C72.8153 26.2259 72.6141 26.2281 72.4522 26.3244C72.2903 26.4206 72.1897 26.5934 72.1897 26.7815L72.1875 44.3953L67.3684 41.7287C67.1672 41.6172 66.9419 41.5625 66.7188 41.5625C66.4956 41.5625 66.2703 41.6172 66.0691 41.7287H66.0713L55.3372 47.6678C54.9347 47.8887 54.6875 48.3 54.6875 48.7419V60.6265C54.6875 61.0706 54.9347 61.4797 55.3372 61.7028L66.0734 67.6462C66.4737 67.8672 66.9703 67.8672 67.3706 67.6462L78.1047 61.7028C78.5028 61.4819 78.75 61.0706 78.75 60.6265V30.1612C78.75 29.7762 78.54 29.4219 78.2053 29.2337ZM71.8944 57.8769L67.0162 60.5784C66.8347 60.679 66.6094 60.679 66.4278 60.5784L61.5475 57.8769C61.3616 57.7762 61.25 57.5881 61.25 57.3869V51.9837C61.25 51.7825 61.3616 51.5965 61.5453 51.4937L66.4256 48.7944C66.5175 48.744 66.6159 48.72 66.7188 48.72C66.8216 48.72 66.9222 48.7462 67.0141 48.7944L71.8922 51.4937C72.0759 51.5965 72.1875 51.7847 72.1875 51.9859V57.389C72.1875 57.5881 72.0759 57.7762 71.8944 57.8769Z" fill="#37474F"/>
<path d="M37.6338 41.8293L26.25 60.7293C26.25 61.1734 26.4972 61.5825 26.8997 61.8056L37.6359 67.749C38.0362 67.97 38.5328 67.97 38.9331 67.749L50.3125 48.8447C50.3125 48.4006 50.0653 47.9915 49.6628 47.7684L38.9309 41.8293C38.7297 41.7178 38.5044 41.6631 38.2812 41.6631C38.0559 41.6631 37.8328 41.7178 37.6316 41.8293" fill="#2E7D32"/>
<path d="M37.6338 41.8293L26.8997 47.7684C26.4972 47.9893 26.25 48.4006 26.25 48.8447L37.6338 67.749C38.0341 67.97 38.5306 67.97 38.9309 67.749L49.665 61.8056C50.0653 61.5825 50.3125 61.1734 50.3125 60.7293L38.9309 41.8293C38.7297 41.7178 38.5044 41.6631 38.2812 41.6631C38.0559 41.6631 37.8328 41.7178 37.6316 41.8293" fill="#4CAF50"/>
<path d="M104.35 47.6678L93.6184 41.7288C93.4172 41.6172 93.1919 41.5625 92.9688 41.5625C92.7456 41.5625 92.5203 41.6172 92.3191 41.7288L81.5872 47.6678C81.1869 47.8888 80.9375 48.3088 80.9375 48.7681V60.6047C80.9375 61.0619 81.1869 61.4841 81.5872 61.705L92.3234 67.6484C92.7259 67.8716 93.2181 67.8716 93.6206 67.6484L98.5709 64.9075C99.0238 64.6559 99.0216 64.0062 98.5666 63.7569L87.7953 57.8791C87.6137 57.7762 87.5 57.5859 87.5 57.3803V51.9859C87.5 51.7847 87.6094 51.5988 87.7844 51.5025L92.6734 48.7988H92.6712C92.7631 48.7484 92.8638 48.7244 92.9666 48.7244C93.0694 48.7244 93.17 48.7506 93.2619 48.7988L98.1509 51.5047C98.3259 51.6009 98.4353 51.7869 98.4353 51.9881V56.3894C98.4353 56.5775 98.5359 56.7525 98.7 56.8466C98.8641 56.9384 99.0653 56.9384 99.2294 56.8444L104.475 53.7972C104.799 53.6091 105 53.2613 105 52.885V48.7725C105 48.3109 104.751 47.8888 104.35 47.6678ZM23.4128 47.6678L12.6809 41.7288C12.4797 41.6172 12.2544 41.5625 12.0312 41.5625C11.8081 41.5625 11.5828 41.6172 11.3816 41.7288L0.649687 47.6678C0.249375 47.8888 0 48.3088 0 48.7681V65.0978C0 65.2859 0.100625 65.4609 0.264687 65.555C0.42875 65.6469 0.63 65.6469 0.794063 65.5528L6.03969 62.5056C6.36344 62.3175 6.5625 61.9697 6.5625 61.5934V51.9837C6.5625 51.7825 6.67188 51.5966 6.84688 51.5003L11.7359 48.7966C11.8278 48.7462 11.9284 48.7222 12.0312 48.7222C12.1341 48.7222 12.2347 48.7484 12.3266 48.7966L17.2156 51.5025C17.3906 51.5988 17.5 51.7847 17.5 51.9859V61.5956C17.5 61.9719 17.6991 62.3197 18.025 62.5078L23.2706 65.555C23.4347 65.6491 23.6359 65.6491 23.8 65.5572C23.9619 65.4609 24.0625 65.2859 24.0625 65.0978V48.7703C24.0625 48.3109 23.8131 47.8888 23.4128 47.6678Z" fill="#37474F"/>
<path d="M16.8999 84.652L21.0519 95.908H21.2199L21.0519 89.428V84.652H24.6279V100H19.5999L15.2919 88.492H15.1359L15.3039 95.116V100H11.7279V84.652H16.8999ZM32.5562 100.336C30.6522 100.336 29.2122 99.864 28.2362 98.92C27.2682 97.968 26.7842 96.632 26.7842 94.912V93.364C26.7842 91.62 27.2722 90.268 28.2482 89.308C29.2242 88.34 30.6602 87.856 32.5562 87.856C34.4522 87.856 35.8842 88.34 36.8522 89.308C37.8282 90.268 38.3162 91.62 38.3162 93.364V94.912C38.3162 96.632 37.8322 97.968 36.8642 98.92C35.8962 99.864 34.4602 100.336 32.5562 100.336ZM32.5562 97.444C33.2362 97.444 33.7522 97.24 34.1042 96.832C34.4642 96.416 34.6442 95.828 34.6442 95.068V93.208C34.6442 92.408 34.4642 91.8 34.1042 91.384C33.7522 90.968 33.2362 90.76 32.5562 90.76C31.8762 90.76 31.3562 90.968 30.9962 91.384C30.6442 91.8 30.4682 92.408 30.4682 93.208V95.068C30.4682 95.828 30.6442 96.416 30.9962 96.832C31.3562 97.24 31.8762 97.444 32.5562 97.444ZM44.1452 100.276C42.7692 100.276 41.7252 99.824 41.0132 98.92C40.3092 98.016 39.9572 96.672 39.9572 94.888V93.436C39.9572 91.62 40.3132 90.248 41.0252 89.32C41.7372 88.392 42.8132 87.928 44.2532 87.928C44.9572 87.928 45.5452 88.044 46.0172 88.276C46.4892 88.508 46.8652 88.836 47.1452 89.26C47.4332 89.684 47.6332 90.184 47.7452 90.76H48.7412L47.8772 93.136C47.8612 92.648 47.7652 92.236 47.5892 91.9C47.4132 91.564 47.1652 91.308 46.8452 91.132C46.5332 90.948 46.1532 90.856 45.7052 90.856C45.0332 90.856 44.5212 91.052 44.1692 91.444C43.8172 91.836 43.6412 92.424 43.6412 93.208V94.9C43.6412 95.676 43.8172 96.264 44.1692 96.664C44.5292 97.056 45.0572 97.252 45.7532 97.252C46.1212 97.252 46.4492 97.184 46.7372 97.048C47.0332 96.912 47.2812 96.724 47.4812 96.484C47.6892 96.244 47.8412 95.972 47.9372 95.668L48.8372 97.444H47.8052C47.6852 97.972 47.4852 98.452 47.2052 98.884C46.9252 99.316 46.5372 99.656 46.0412 99.904C45.5452 100.152 44.9132 100.276 44.1452 100.276ZM47.8292 100L47.9372 97.012L47.8772 96.388V91.612V91.096L47.8292 87.676V84.148H51.4772V100H47.8292ZM59.7909 100.3C57.6469 100.3 56.0629 99.824 55.0389 98.872C54.0149 97.912 53.5029 96.516 53.5029 94.684V93.46C53.5029 91.652 53.9829 90.268 54.9429 89.308C55.9029 88.34 57.2989 87.856 59.1309 87.856C60.3629 87.856 61.3869 88.068 62.2029 88.492C63.0269 88.908 63.6429 89.504 64.0509 90.28C64.4669 91.056 64.6749 91.988 64.6749 93.076V93.472C64.6749 93.776 64.6589 94.088 64.6269 94.408C64.6029 94.72 64.5669 95.012 64.5189 95.284H61.2069C61.2389 94.82 61.2589 94.384 61.2669 93.976C61.2749 93.56 61.2789 93.184 61.2789 92.848C61.2789 92.36 61.2029 91.952 61.0509 91.624C60.8989 91.288 60.6629 91.032 60.3429 90.856C60.0309 90.68 59.6269 90.592 59.1309 90.592C58.3949 90.592 57.8549 90.792 57.5109 91.192C57.1749 91.584 57.0069 92.144 57.0069 92.872V93.952L57.0309 94.348V95.188C57.0309 95.492 57.0789 95.78 57.1749 96.052C57.2789 96.324 57.4549 96.564 57.7029 96.772C57.9589 96.972 58.3069 97.132 58.7469 97.252C59.1949 97.364 59.7629 97.42 60.4509 97.42C61.1789 97.42 61.8789 97.352 62.5509 97.216C63.2229 97.072 63.8669 96.88 64.4829 96.64L64.1829 99.4C63.6389 99.68 62.9949 99.9 62.2509 100.06C61.5069 100.22 60.6869 100.3 59.7909 100.3ZM55.4469 95.284V93.016H63.7749V95.284H55.4469ZM68.2232 100.324C67.5352 100.324 67.0272 100.148 66.6992 99.796C66.3792 99.444 66.2192 98.952 66.2192 98.32V98.188C66.2192 97.564 66.3792 97.072 66.6992 96.712C67.0272 96.352 67.5352 96.172 68.2232 96.172C68.8952 96.172 69.3952 96.352 69.7232 96.712C70.0512 97.072 70.2152 97.564 70.2152 98.188V98.32C70.2152 98.952 70.0512 99.444 69.7232 99.796C69.3952 100.148 68.8952 100.324 68.2232 100.324ZM72.5843 98.032V88.204H76.2563V98.032H72.5843ZM74.4203 87.088C73.7403 87.088 73.2443 86.932 72.9323 86.62C72.6203 86.3 72.4643 85.872 72.4643 85.336V85.252C72.4643 84.716 72.6203 84.292 72.9323 83.98C73.2443 83.668 73.7403 83.512 74.4203 83.512C75.1003 83.512 75.5963 83.668 75.9083 83.98C76.2283 84.292 76.3883 84.716 76.3883 85.252V85.336C76.3883 85.88 76.2283 86.308 75.9083 86.62C75.5963 86.932 75.1003 87.088 74.4203 87.088ZM72.1523 104.332C71.7923 104.332 71.4603 104.308 71.1562 104.26C70.8442 104.22 70.5722 104.168 70.3402 104.104L70.0762 101.188C70.2362 101.244 70.4042 101.288 70.5802 101.32C70.7482 101.352 70.9242 101.368 71.1082 101.368C71.7003 101.368 72.0923 101.212 72.2843 100.9C72.4843 100.588 72.5843 100.156 72.5843 99.604V97.324H76.2563V99.856C76.2563 100.76 76.1243 101.544 75.8603 102.208C75.6043 102.88 75.1763 103.4 74.5763 103.768C73.9763 104.144 73.1683 104.332 72.1523 104.332ZM82.9084 100.288C81.9724 100.288 81.1284 100.204 80.3764 100.036C79.6244 99.876 78.9804 99.688 78.4444 99.472L78.1324 96.388C78.7484 96.644 79.4284 96.876 80.1724 97.084C80.9244 97.284 81.7364 97.384 82.6084 97.384C83.3044 97.384 83.7964 97.312 84.0844 97.168C84.3804 97.016 84.5284 96.784 84.5284 96.472V96.424C84.5284 96.208 84.4524 96.032 84.3004 95.896C84.1564 95.752 83.9004 95.624 83.5324 95.512C83.1724 95.4 82.6644 95.268 82.0084 95.116C81.0244 94.884 80.2444 94.612 79.6684 94.3C79.0924 93.98 78.6804 93.592 78.4324 93.136C78.1924 92.672 78.0724 92.124 78.0724 91.492V91.396C78.0724 90.228 78.4884 89.356 79.3204 88.78C80.1524 88.196 81.3764 87.904 82.9924 87.904C83.9044 87.904 84.7244 87.988 85.4524 88.156C86.1804 88.324 86.7924 88.524 87.2884 88.756L87.6004 91.624C87.0244 91.368 86.3804 91.156 85.6684 90.988C84.9644 90.82 84.2244 90.736 83.4484 90.736C82.9764 90.736 82.6044 90.768 82.3324 90.832C82.0684 90.896 81.8804 90.988 81.7684 91.108C81.6644 91.228 81.6124 91.376 81.6124 91.552V91.588C81.6124 91.78 81.6764 91.944 81.8044 92.08C81.9324 92.216 82.1644 92.344 82.5004 92.464C82.8444 92.584 83.3364 92.72 83.9764 92.872C84.9684 93.088 85.7684 93.336 86.3764 93.616C86.9844 93.888 87.4284 94.244 87.7084 94.684C87.9884 95.116 88.1284 95.692 88.1284 96.412V96.52C88.1284 97.792 87.7004 98.74 86.8444 99.364C85.9884 99.98 84.6764 100.288 82.9084 100.288Z" fill="black"/>
</svg>
