<svg width="91" height="116" viewBox="0 0 91 116" fill="none" xmlns="http://www.w3.org/2000/svg">
<path d="M49.1824 31.875H34.0493C26.7363 31.875 20.8079 25.9988 20.8079 18.75C20.8079 11.5013 26.7363 5.625 34.0493 5.625H49.1824V31.875Z" fill="#E64A19"/>
<path d="M47.2907 58.125H34.0493C26.7363 58.125 20.8079 52.2488 20.8079 45C20.8079 37.7513 26.7363 31.875 34.0493 31.875H47.2907V58.125Z" fill="#7C4DFF"/>
<path d="M34.0493 84.375C26.7363 84.375 20.8079 78.4988 20.8079 71.25C20.8079 64.0013 26.7363 58.125 34.0493 58.125H47.2907V71.25C47.2907 78.4988 41.3624 84.375 34.0493 84.375Z" fill="#66BB6A"/>
<path d="M60.5321 31.875H47.2907V5.625H60.5321C67.8452 5.625 73.7735 11.5013 73.7735 18.75C73.7735 25.9988 67.8452 31.875 60.5321 31.875Z" fill="#FF7043"/>
<path d="M60.5321 58.125C67.8451 58.125 73.7735 52.2487 73.7735 45C73.7735 37.7513 67.8451 31.875 60.5321 31.875C53.2191 31.875 47.2907 37.7513 47.2907 45C47.2907 52.2487 53.2191 58.125 60.5321 58.125Z" fill="#29B6F6"/>
<path d="M14.588 111V95.664H18.32V111H14.588ZM16.736 105.66V102.504H24.692V105.66H16.736ZM15.668 98.82V95.664H24.872V98.82H15.668ZM26.8304 111V99.204H30.5024V111H26.8304ZM28.6664 98.088C27.9784 98.088 27.4784 97.932 27.1664 97.62C26.8544 97.3 26.6984 96.872 26.6984 96.336V96.252C26.6984 95.716 26.8544 95.292 27.1664 94.98C27.4784 94.668 27.9784 94.512 28.6664 94.512C29.3384 94.512 29.8304 94.668 30.1424 94.98C30.4624 95.292 30.6224 95.716 30.6224 96.252V96.336C30.6224 96.88 30.4624 97.308 30.1424 97.62C29.8304 97.932 29.3384 98.088 28.6664 98.088ZM38.1791 107.328C36.2831 107.328 34.8591 106.976 33.9071 106.272C32.9551 105.568 32.4791 104.58 32.4791 103.308V103.152C32.4791 102.288 32.6711 101.56 33.0551 100.968C33.4471 100.368 34.0471 99.904 34.8551 99.576C35.6631 99.248 36.6991 99.052 37.9631 98.988L44.2631 98.7V101.292L41.1311 101.208V101.328C41.6671 101.416 42.1071 101.568 42.4511 101.784C42.8031 101.992 43.0631 102.268 43.2311 102.612C43.4071 102.948 43.4951 103.364 43.4951 103.86V103.944C43.4951 105.04 43.0591 105.88 42.1871 106.464C41.3231 107.04 39.9871 107.328 38.1791 107.328ZM37.9991 112.908H38.3591C38.9351 112.908 39.3991 112.872 39.7511 112.8C40.1111 112.728 40.3751 112.62 40.5431 112.476C40.7111 112.332 40.7951 112.152 40.7951 111.936V111.912C40.7951 111.632 40.6751 111.432 40.4351 111.312C40.2031 111.192 39.8511 111.112 39.3791 111.072L35.8991 110.724L36.7031 110.676C36.4631 110.716 36.2551 110.784 36.0791 110.88C35.9111 110.976 35.7751 111.096 35.6711 111.24C35.5751 111.384 35.5271 111.56 35.5271 111.768V111.792C35.5271 112.032 35.6151 112.236 35.7911 112.404C35.9671 112.572 36.2351 112.696 36.5951 112.776C36.9631 112.864 37.4311 112.908 37.9991 112.908ZM37.8191 115.596C36.6351 115.596 35.6231 115.5 34.7831 115.308C33.9511 115.124 33.3191 114.828 32.8871 114.42C32.4551 114.012 32.2391 113.472 32.2391 112.8V112.752C32.2391 112.296 32.3391 111.912 32.5391 111.6C32.7391 111.288 33.0271 111.044 33.4031 110.868C33.7791 110.692 34.2191 110.584 34.7231 110.544V110.424C34.1071 110.312 33.6311 110.116 33.2951 109.836C32.9671 109.556 32.8031 109.164 32.8031 108.66V108.648C32.8031 108.288 32.8831 107.984 33.0431 107.736C33.2111 107.488 33.4551 107.3 33.7751 107.172C34.0951 107.036 34.4871 106.956 34.9511 106.932V106.536L37.6631 107.22L36.8711 107.208C36.5911 107.208 36.3911 107.244 36.2711 107.316C36.1591 107.388 36.1031 107.496 36.1031 107.64V107.652C36.1031 107.828 36.1951 107.956 36.3791 108.036C36.5711 108.108 36.8791 108.168 37.3031 108.216L40.0991 108.54C41.4591 108.7 42.4711 109.036 43.1351 109.548C43.7991 110.06 44.1311 110.852 44.1311 111.924V111.996C44.1311 112.812 43.8991 113.484 43.4351 114.012C42.9791 114.548 42.3151 114.944 41.4431 115.2C40.5791 115.464 39.5231 115.596 38.2751 115.596H37.8191ZM38.0591 104.856C38.5311 104.856 38.9191 104.796 39.2231 104.676C39.5351 104.548 39.7671 104.364 39.9191 104.124C40.0791 103.876 40.1591 103.58 40.1591 103.236V103.128C40.1591 102.784 40.0831 102.492 39.9311 102.252C39.7791 102.012 39.5471 101.832 39.2351 101.712C38.9311 101.584 38.5391 101.52 38.0591 101.52H38.0471C37.5591 101.52 37.1591 101.584 36.8471 101.712C36.5351 101.84 36.3031 102.024 36.1511 102.264C36.0071 102.504 35.9351 102.796 35.9351 103.14V103.236C35.9351 103.58 36.0111 103.876 36.1631 104.124C36.3231 104.364 36.5591 104.548 36.8711 104.676C37.1831 104.796 37.5791 104.856 38.0591 104.856ZM60.1571 111V103.968C60.1571 103.552 60.1051 103.196 60.0011 102.9C59.9051 102.596 59.7371 102.364 59.4971 102.204C59.2651 102.044 58.9411 101.964 58.5251 101.964C58.1731 101.964 57.8651 102.032 57.6011 102.168C57.3371 102.296 57.1171 102.476 56.9411 102.708C56.7651 102.932 56.6331 103.188 56.5451 103.476L56.1971 101.76H56.5211C56.6491 101.232 56.8531 100.756 57.1331 100.332C57.4131 99.9 57.8011 99.56 58.2971 99.312C58.7931 99.056 59.4291 98.928 60.2051 98.928C61.0451 98.928 61.7291 99.096 62.2571 99.432C62.7931 99.76 63.1891 100.256 63.4451 100.92C63.7011 101.576 63.8291 102.396 63.8291 103.38V111H60.1571ZM45.7091 111V99.204H49.3571L49.2371 102.384L49.3811 102.504V111H45.7091ZM52.9331 111V103.968C52.9331 103.552 52.8811 103.196 52.7771 102.9C52.6811 102.596 52.5131 102.364 52.2731 102.204C52.0331 102.044 51.7091 101.964 51.3011 101.964C50.9411 101.964 50.6291 102.032 50.3651 102.168C50.1011 102.296 49.8811 102.476 49.7051 102.708C49.5371 102.932 49.4091 103.188 49.3211 103.476L48.7571 101.76H49.3811C49.5011 101.224 49.6971 100.744 49.9691 100.32C50.2491 99.896 50.6331 99.56 51.1211 99.312C51.6091 99.056 52.2251 98.928 52.9691 98.928C54.0651 98.928 54.8891 99.212 55.4411 99.78C56.0011 100.34 56.3531 101.156 56.4971 102.228C56.5211 102.388 56.5451 102.584 56.5691 102.816C56.5931 103.048 56.6051 103.256 56.6051 103.44V111H52.9331ZM72.926 111L73.034 108.048L72.95 107.868V104.184L72.926 103.704C72.926 103.048 72.734 102.564 72.35 102.252C71.966 101.94 71.322 101.784 70.418 101.784C69.626 101.784 68.874 101.884 68.162 102.084C67.45 102.284 66.778 102.512 66.146 102.768L66.458 99.924C66.834 99.748 67.254 99.584 67.718 99.432C68.19 99.272 68.71 99.144 69.278 99.048C69.846 98.952 70.454 98.904 71.102 98.904C72.134 98.904 72.998 99.024 73.694 99.264C74.39 99.504 74.946 99.844 75.362 100.284C75.778 100.724 76.078 101.252 76.262 101.868C76.446 102.476 76.538 103.148 76.538 103.884V111H72.926ZM69.17 111.276C67.994 111.276 67.102 110.98 66.494 110.388C65.886 109.796 65.582 108.952 65.582 107.856V107.532C65.582 106.372 65.938 105.516 66.65 104.964C67.37 104.404 68.51 104.024 70.07 103.824L73.238 103.404L73.454 105.612L70.646 106.02C70.078 106.092 69.678 106.224 69.446 106.416C69.214 106.608 69.098 106.892 69.098 107.268V107.352C69.098 107.712 69.214 108 69.446 108.216C69.678 108.424 70.05 108.528 70.562 108.528C71.01 108.528 71.394 108.46 71.714 108.324C72.042 108.188 72.31 108.012 72.518 107.796C72.726 107.572 72.882 107.324 72.986 107.052L73.502 108.54H72.902C72.774 109.052 72.574 109.516 72.302 109.932C72.038 110.348 71.654 110.676 71.15 110.916C70.646 111.156 69.986 111.276 69.17 111.276Z" fill="black"/>
</svg>
