<svg width="90" height="116" viewBox="0 0 90 116" fill="none" xmlns="http://www.w3.org/2000/svg">
<g clip-path="url(#clip0_90_153)">
<path d="M78.75 51.0625L48.1875 20.5C47.25 19.5625 45.9375 19 44.625 19C43.3125 19 42 19.5625 41.0625 20.5L34.5 27.0625L42.1875 34.75C42.9375 34.375 43.6875 34.1875 44.625 34.1875C47.8125 34.1875 50.25 36.625 50.25 39.8125C50.25 40.75 50.0625 41.5 49.6875 42.25L57.1875 49.75C57.9375 49.375 58.6875 49.1875 59.625 49.1875C62.8125 49.1875 65.25 51.625 65.25 54.8125C65.25 58 62.8125 60.4375 59.625 60.4375C56.4375 60.4375 54 58 54 54.8125C54 53.875 54.1875 53.125 54.5625 52.375L47.0625 44.875C46.875 44.875 46.6875 45.0625 46.5 45.0625V64.5625C48.75 65.3125 50.25 67.375 50.25 69.8125C50.25 73 47.8125 75.4375 44.625 75.4375C41.4375 75.4375 39 73 39 69.8125C39 67.375 40.5 65.3125 42.75 64.5625V44.875C40.5 44.125 39 42.0625 39 39.625C39 38.6875 39.1875 37.9375 39.5625 37.1875L31.875 29.5L10.5 51.0625C9.5625 52 9 53.3125 9 54.625C9 55.9375 9.5625 57.25 10.5 58.1875L41.0625 88.75C42 89.6875 43.3125 90.25 44.625 90.25C45.9375 90.25 47.25 89.6875 48.1875 88.75L78.75 58.1875C79.6875 57.25 80.25 55.9375 80.25 54.625C80.25 53.3125 79.6875 52 78.75 51.0625Z" fill="#F4511E"/>
</g>
<path d="M35.7707 111.336C34.6027 111.336 33.6227 111.084 32.8307 110.58C32.0467 110.076 31.4587 109.348 31.0667 108.396C30.6747 107.436 30.4787 106.284 30.4787 104.94V102.24C30.4787 99.984 31.0867 98.268 32.3027 97.092C33.5267 95.916 35.3107 95.328 37.6547 95.328C38.3747 95.328 39.0427 95.38 39.6587 95.484C40.2747 95.58 40.8347 95.708 41.3387 95.868C41.8507 96.028 42.2947 96.204 42.6707 96.396L42.9947 99.564C42.3867 99.292 41.7067 99.052 40.9547 98.844C40.2107 98.628 39.3547 98.52 38.3867 98.52C36.9787 98.52 35.9467 98.84 35.2907 99.48C34.6347 100.112 34.3067 101.104 34.3067 102.456V104.976C34.3067 105.984 34.5427 106.764 35.0147 107.316C35.4947 107.868 36.2387 108.144 37.2467 108.144C37.6947 108.144 38.0827 108.08 38.4107 107.952C38.7467 107.816 39.0227 107.64 39.2387 107.424C39.4627 107.208 39.6387 106.968 39.7667 106.704V103.776L40.2587 104.88L37.3067 104.892V102H43.3667V108.444H39.6947C39.5747 108.996 39.3707 109.492 39.0827 109.932C38.8027 110.364 38.3947 110.708 37.8587 110.964C37.3307 111.212 36.6347 111.336 35.7707 111.336ZM39.8507 107.844H43.3667V111H39.7307L39.8507 107.844ZM45.8141 111V99.204H49.4861V111H45.8141ZM47.6501 98.088C46.9621 98.088 46.4621 97.932 46.1501 97.62C45.8381 97.3 45.6821 96.872 45.6821 96.336V96.252C45.6821 95.716 45.8381 95.292 46.1501 94.98C46.4621 94.668 46.9621 94.512 47.6501 94.512C48.3221 94.512 48.8141 94.668 49.1261 94.98C49.4461 95.292 49.6061 95.716 49.6061 96.252V96.336C49.6061 96.88 49.4461 97.308 49.1261 97.62C48.8141 97.932 48.3221 98.088 47.6501 98.088ZM56.6588 111.264C55.6108 111.264 54.7748 111.108 54.1508 110.796C53.5348 110.476 53.0908 110 52.8188 109.368C52.5468 108.736 52.4108 107.956 52.4108 107.028V100.44H56.0588V106.44C56.0588 107.016 56.1868 107.44 56.4428 107.712C56.7068 107.976 57.1948 108.108 57.9068 108.108C58.2988 108.108 58.6868 108.064 59.0708 107.976C59.4548 107.888 59.8028 107.776 60.1148 107.64L59.8028 110.676C59.3948 110.852 58.9228 110.992 58.3868 111.096C57.8588 111.208 57.2828 111.264 56.6588 111.264ZM50.8268 102.132V99.252H60.0068L59.6828 102.132H50.8268ZM52.4588 99.516L52.4468 96.468L56.0828 96.12L55.9508 99.516H52.4588Z" fill="black"/>
<defs>
<clipPath id="clip0_90_153">
<rect width="90" height="90" fill="white"/>
</clipPath>
</defs>
</svg>
