<svg width="91" height="116" viewBox="0 0 91 116" fill="none" xmlns="http://www.w3.org/2000/svg">
<path d="M45.488 9.37502C42.5465 9.38439 40.5073 9.64127 38.0426 10.0631C30.7636 11.3194 29.4375 13.9575 29.4375 18.8194V26.25H46.4622V30H28.7906H20.562C15.5757 30 11.2117 32.3288 9.8289 37.9106C8.26641 44.3175 8.19642 48.33 9.8289 55.02C11.0679 60.0094 13.7975 63.75 18.7858 63.75H25.6562V54.18C25.6562 48.6188 30.7371 43.125 36.5595 43.125H50.2473C55.0199 43.125 59.7055 39.6338 59.7055 34.9181V18.8194C59.7055 14.2463 56.3781 10.8263 51.7266 10.0594C51.842 10.0481 48.4049 9.36377 45.488 9.37502ZM36.0601 16.875C37.6132 16.875 38.8976 18.1444 38.8976 19.6913C38.8976 21.2531 37.6132 22.5 36.0601 22.5C34.4768 22.5 33.2227 21.255 33.2227 19.6913C33.2227 18.15 34.4768 16.875 36.0601 16.875Z" fill="url(#paint0_linear_90_152)"/>
<path d="M43.655 80.625C46.5965 80.6156 48.6357 80.3587 51.1005 79.9369C58.3795 78.6806 59.7055 76.0425 59.7055 71.1806V63.75H42.6808V60H60.3543H68.5829C73.5693 60 77.9332 57.6712 79.316 52.0894C80.8785 45.6825 80.9485 41.67 79.316 34.98C78.0751 29.9906 75.3455 26.25 70.3573 26.25H63.4869V35.82C63.4869 41.3813 58.4059 46.875 52.5835 46.875H38.8957C34.1231 46.875 29.4375 50.3663 29.4375 55.0819V71.1806C29.4375 75.7538 32.7649 79.1737 37.4164 79.9406C37.301 79.9519 40.7381 80.6362 43.655 80.625ZM53.0848 73.125C51.5318 73.125 50.2473 71.8556 50.2473 70.3088C50.2473 68.7469 51.5318 67.5 53.0848 67.5C54.6681 67.5 55.9222 68.745 55.9222 70.3088C55.9222 71.85 54.6662 73.125 53.0848 73.125Z" fill="url(#paint1_linear_90_152)"/>
<path d="M10.733 106.644V103.608H14.369C15.153 103.608 15.717 103.436 16.061 103.092C16.413 102.74 16.589 102.216 16.589 101.52V100.776C16.589 100.072 16.417 99.548 16.073 99.204C15.729 98.86 15.165 98.688 14.381 98.688H10.721V95.664H14.657C16.609 95.664 18.037 96.096 18.941 96.96C19.853 97.824 20.309 99.06 20.309 100.668V101.64C20.309 103.256 19.853 104.496 18.941 105.36C18.037 106.216 16.613 106.644 14.669 106.644H10.733ZM8.213 111V95.664H11.885V104.46L11.909 106.164V111H8.213ZM29.1093 108.06L27.1413 108.912L29.7933 99.204H33.5493L28.7373 115.128H25.0653L26.9013 109.128L28.6293 110.496H24.5613L21.3693 99.204H25.1493L27.1893 108.06H29.1093ZM39.8782 111.264C38.8302 111.264 37.9942 111.108 37.3702 110.796C36.7542 110.476 36.3102 110 36.0382 109.368C35.7662 108.736 35.6302 107.956 35.6302 107.028V100.44H39.2782V106.44C39.2782 107.016 39.4062 107.44 39.6622 107.712C39.9262 107.976 40.4142 108.108 41.1262 108.108C41.5182 108.108 41.9062 108.064 42.2902 107.976C42.6742 107.888 43.0222 107.776 43.3342 107.64L43.0222 110.676C42.6142 110.852 42.1422 110.992 41.6062 111.096C41.0782 111.208 40.5022 111.264 39.8782 111.264ZM34.0462 102.132V99.252H43.2262L42.9022 102.132H34.0462ZM35.6782 99.516L35.6662 96.468L39.3022 96.12L39.1702 99.516H35.6782ZM52.4727 111V104.064C52.4727 103.632 52.4167 103.26 52.3047 102.948C52.1927 102.628 52.0047 102.384 51.7407 102.216C51.4847 102.048 51.1247 101.964 50.6607 101.964C50.2847 101.964 49.9527 102.032 49.6647 102.168C49.3767 102.296 49.1367 102.476 48.9447 102.708C48.7607 102.932 48.6167 103.188 48.5127 103.476L47.7687 101.76H48.6207C48.7407 101.224 48.9447 100.744 49.2327 100.32C49.5207 99.896 49.9167 99.56 50.4207 99.312C50.9327 99.056 51.5727 98.928 52.3407 98.928C53.2207 98.928 53.9407 99.1 54.5007 99.444C55.0607 99.78 55.4727 100.284 55.7367 100.956C56.0087 101.628 56.1447 102.468 56.1447 103.476V111H52.4727ZM44.8887 111V95.148H48.5367V98.676L48.4767 102.564L48.5607 102.852V111H44.8887ZM63.8225 111.336C61.9185 111.336 60.4785 110.864 59.5025 109.92C58.5345 108.968 58.0505 107.632 58.0505 105.912V104.364C58.0505 102.62 58.5385 101.268 59.5145 100.308C60.4905 99.34 61.9265 98.856 63.8225 98.856C65.7185 98.856 67.1505 99.34 68.1185 100.308C69.0945 101.268 69.5825 102.62 69.5825 104.364V105.912C69.5825 107.632 69.0985 108.968 68.1305 109.92C67.1625 110.864 65.7265 111.336 63.8225 111.336ZM63.8225 108.444C64.5025 108.444 65.0185 108.24 65.3705 107.832C65.7305 107.416 65.9105 106.828 65.9105 106.068V104.208C65.9105 103.408 65.7305 102.8 65.3705 102.384C65.0185 101.968 64.5025 101.76 63.8225 101.76C63.1425 101.76 62.6225 101.968 62.2625 102.384C61.9105 102.8 61.7345 103.408 61.7345 104.208V106.068C61.7345 106.828 61.9105 107.416 62.2625 107.832C62.6225 108.24 63.1425 108.444 63.8225 108.444ZM79.1915 111V104.064C79.1915 103.632 79.1355 103.26 79.0235 102.948C78.9115 102.628 78.7235 102.384 78.4595 102.216C78.1955 102.048 77.8355 101.964 77.3795 101.964C77.0035 101.964 76.6715 102.032 76.3835 102.168C76.0955 102.296 75.8515 102.476 75.6515 102.708C75.4595 102.932 75.3155 103.188 75.2195 103.476L74.6555 101.76H75.2795C75.4075 101.224 75.6155 100.744 75.9035 100.32C76.1995 99.896 76.6035 99.56 77.1155 99.312C77.6275 99.056 78.2755 98.928 79.0595 98.928C79.9395 98.928 80.6595 99.1 81.2195 99.444C81.7795 99.78 82.1915 100.284 82.4555 100.956C82.7275 101.628 82.8635 102.468 82.8635 103.476V111H79.1915ZM71.6075 111V99.204H75.2555L75.1355 102.156L75.2795 102.504V111H71.6075Z" fill="black"/>
<defs>
<linearGradient id="paint0_linear_90_152" x1="19.7827" y1="24.3225" x2="49.5571" y2="49.5283" gradientUnits="userSpaceOnUse">
<stop stop-color="#26ABE7"/>
<stop offset="1" stop-color="#086DBF"/>
</linearGradient>
<linearGradient id="paint1_linear_90_152" x1="66.8388" y1="71.0831" x2="44.7495" y2="39.2555" gradientUnits="userSpaceOnUse">
<stop stop-color="#FEB705"/>
<stop offset="1" stop-color="#FFDA1C"/>
</linearGradient>
</defs>
</svg>
