<svg width="90" height="116" viewBox="0 0 90 116" fill="none" xmlns="http://www.w3.org/2000/svg">
<path d="M52.3125 45C52.3125 49.0421 49.0421 52.3125 45 52.3125C40.9579 52.3125 37.6875 49.0421 37.6875 45C37.6875 40.9579 40.9579 37.6875 45 37.6875C49.0421 37.6875 52.3125 40.9579 52.3125 45Z" fill="#8BB7F0"/>
<path d="M45 52.875C40.6586 52.875 37.125 49.3425 37.125 45C37.125 40.6575 40.6586 37.125 45 37.125C49.3414 37.125 52.875 40.6575 52.875 45C52.875 49.3425 49.3414 52.875 45 52.875ZM45 38.25C41.2774 38.25 38.25 41.2774 38.25 45C38.25 48.7226 41.2774 51.75 45 51.75C48.7226 51.75 51.75 48.7226 51.75 45C51.75 41.2774 48.7226 38.25 45 38.25Z" fill="#4E7AB5"/>
<path d="M27.5333 84.9409C25.6084 84.9409 23.8556 84.4999 22.3222 83.6314C19.7572 82.1768 17.9843 79.6703 17.0505 76.184C15.9649 72.1261 16.0942 66.7362 17.424 60.5712C6.7005 56.8823 0.5625 51.2225 0.5625 45.0001C0.5625 38.7766 6.69938 33.1178 17.4229 29.4301C16.0931 23.264 15.9626 17.8741 17.0483 13.8162C17.982 10.3287 19.755 7.8222 22.3189 6.3687C23.8511 5.5002 25.605 5.0592 27.5299 5.0592C32.4664 5.0592 38.6572 8.13045 45.0023 13.7195C51.3472 8.13608 57.5359 5.06708 62.4668 5.06708C64.3916 5.06708 66.1444 5.50808 67.6777 6.37658C70.2394 7.82895 72.0135 10.331 72.9473 13.814C74.034 17.8707 73.9035 23.2617 72.5726 29.429C83.2984 33.1167 89.4375 38.7766 89.4375 45.0001C89.4375 51.2236 83.2984 56.8834 72.5726 60.5723C73.9024 66.7385 74.0329 72.1283 72.9461 76.1851C72.0124 79.6692 70.2405 82.1712 67.6811 83.6236C66.1466 84.4921 64.3927 84.9331 62.469 84.9331C57.5347 84.9331 51.3439 81.8641 45.0011 76.283C38.6561 81.8708 32.4664 84.9409 27.5333 84.9409ZM21.7541 61.8818C20.6392 67.1885 20.5144 71.7222 21.3986 75.0207C22.0084 77.2999 23.0648 78.8806 24.5419 79.7176C25.389 80.198 26.3959 80.4421 27.5333 80.4421C31.3515 80.4421 36.378 77.8748 41.7319 73.2005C39.0488 70.4982 36.4297 67.4393 33.9379 64.0981C29.628 63.6301 25.533 62.8853 21.7541 61.8818ZM48.2692 73.1982C53.622 77.8681 58.6496 80.4331 62.4679 80.4342C63.6053 80.4342 64.6121 80.1901 65.4615 79.7097C66.9341 78.8749 67.9883 77.2977 68.5969 75.0218C69.4811 71.7211 69.3574 67.1885 68.2425 61.883C64.4603 62.8865 60.3641 63.6312 56.0554 64.0992C53.5646 67.4405 50.949 70.4982 48.2692 73.1982ZM40.0118 64.5672C41.6453 66.5652 43.317 68.4293 45 70.1247C46.6785 68.4305 48.3514 66.5663 49.9837 64.5672C48.3064 64.6471 46.6357 64.6876 45 64.6876C43.3631 64.6876 41.6914 64.6471 40.0118 64.5672ZM36.3926 59.8265C39.1995 60.0661 42.0941 60.1876 45 60.1876C47.9081 60.1876 50.7994 60.0661 53.6017 59.8276C55.2735 57.4831 56.8676 55.0261 58.3425 52.5207C59.769 50.0963 61.1111 47.5662 62.3329 44.999C61.1145 42.4385 59.7735 39.9095 58.3436 37.4795C56.8721 34.9797 55.278 32.5227 53.6017 30.1726C50.8016 29.9341 47.9104 29.8126 45 29.8126C42.0885 29.8126 39.1961 29.9341 36.3971 30.1737C34.7209 32.5205 33.1245 34.9775 31.6508 37.4806C30.222 39.9095 28.881 42.4384 27.6615 45.0023C28.8787 47.5606 30.2197 50.0896 31.6496 52.5218C33.1166 55.0137 34.7108 57.4696 36.3926 59.8265ZM64.6774 50.3764C63.8831 51.8907 63.0596 53.3757 62.2192 54.8022C61.3721 56.2445 60.471 57.6912 59.535 59.1177C62.2057 58.706 64.7606 58.1783 67.1524 57.5427C66.4886 55.2376 65.6572 52.8335 64.6774 50.3764ZM22.842 57.5416C25.2349 58.1761 27.7886 58.7048 30.456 59.1166C29.5144 57.6811 28.6133 56.2332 27.7718 54.8022C26.9336 53.3768 26.109 51.8941 25.3159 50.3798C24.3405 52.8256 23.5103 55.2275 22.842 57.5416ZM67.293 45.0001C69.012 48.815 70.4126 52.586 71.4645 56.2242C79.7917 53.2947 84.9375 49.0208 84.9375 45.0001C84.9375 40.9793 79.7917 36.7055 71.4645 33.776C70.4149 37.4142 69.0131 41.1852 67.293 45.0001ZM18.531 33.7782C10.2071 36.7066 5.0625 40.9805 5.0625 45.0001C5.0625 49.0208 10.2071 53.2947 18.5333 56.2231C19.584 52.5837 20.9846 48.8127 22.7014 45.0023C20.9835 41.1908 19.5829 37.4198 18.531 33.7782ZM22.8409 32.4586C23.5091 34.7693 24.3394 37.1723 25.3159 39.6226C26.1079 38.1128 26.9314 36.629 27.7729 35.1991C28.6189 33.7602 29.52 32.3135 30.4594 30.8836C27.7886 31.2942 25.2349 31.823 22.8409 32.4586ZM59.5373 30.8825C60.4789 32.3191 61.38 33.7658 62.2215 35.1991C63.0607 36.6245 63.8854 38.1083 64.6796 39.6226C65.6572 37.1735 66.4875 34.7705 67.1557 32.4575C64.7595 31.8218 62.2057 31.2931 59.5373 30.8825ZM27.5299 9.5592C26.3925 9.5592 25.3867 9.8022 24.5407 10.2837C23.0647 11.1207 22.0072 12.7013 21.3964 14.9806C20.5132 18.2825 20.637 22.8151 21.753 28.1195C25.533 27.116 29.6303 26.3701 33.9412 25.9021C36.4354 22.5597 39.0544 19.5031 41.7341 16.8031C36.3791 12.1265 31.3493 9.5592 27.5299 9.5592ZM56.0565 25.901C60.3652 26.369 64.4614 27.1137 68.2436 28.1172C69.3596 22.8117 69.4845 18.278 68.5991 14.9772C67.9894 12.7025 66.9341 11.1252 65.4604 10.2905C64.6121 9.81008 63.6053 9.56595 62.4668 9.56595C58.6496 9.56595 53.6243 12.1321 48.2704 16.8031C50.9479 19.502 53.5646 22.5597 56.0565 25.901ZM45 25.3126C46.6357 25.3126 48.3064 25.3531 49.9849 25.433C48.3536 23.4372 46.6819 21.5742 45.0023 19.8777C43.3181 21.5765 41.6475 23.4395 40.0163 25.433C41.6936 25.3531 43.3643 25.3126 45 25.3126Z" fill="#8BB7F0"/>
<path d="M27.5299 5.62167C32.5856 5.62167 38.7754 8.89542 45.0034 14.472C51.2302 8.89992 57.4166 5.62954 62.4679 5.62954C64.2937 5.62954 65.9542 6.04579 67.4021 6.86592C69.8276 8.24067 71.5106 10.6268 72.4039 13.9602C73.6155 18.3668 73.3613 23.7927 71.9156 29.8002C82.2904 33.2663 88.875 38.7349 88.875 45C88.875 51.2652 82.2904 56.7338 71.9145 60.201C73.4231 66.6957 73.6763 72.2678 72.4028 76.0399C71.5095 79.3722 69.8276 81.7594 67.4044 83.1342C65.9543 83.9554 64.6369 84.375 62.8121 84.375C62.811 84.375 62.3441 84.375 62.343 84.375C57.2895 84.375 51.2257 81.1013 45 75.5314C38.7731 81.1069 32.5856 84.3784 27.5321 84.3784C25.7062 84.3784 24.0457 83.9622 22.5979 83.142C20.1701 81.7639 18.486 79.3744 17.5939 76.0388C16.2551 71.8572 16.5251 66.3604 18.0821 60.1999C7.7085 56.7327 1.125 51.2652 1.125 45C1.125 38.736 7.7085 33.2674 18.081 29.8002C17.3081 26.3588 16.8142 23.1638 16.7974 20.25C16.7839 17.9483 17.0977 15.8074 17.5927 13.9613C18.486 10.6245 20.169 8.23504 22.5968 6.85804C24.0435 6.03679 25.704 5.62167 27.5299 5.62167ZM21.3278 28.8158C25.2394 27.7414 29.583 26.9292 34.2461 26.4342C36.9259 22.8229 39.7305 19.5762 42.5554 16.7772C37.0744 11.8879 31.7374 8.99554 27.5299 8.99554C26.2935 8.99554 25.1955 9.26329 24.2629 9.79317C22.6507 10.7078 21.5044 12.4032 20.853 14.8343C19.8877 18.4365 20.1071 23.3055 21.3278 28.8158ZM68.6689 28.8147C69.8895 23.3044 70.1089 18.4343 69.1436 14.832C68.4934 12.4054 67.347 10.7134 65.7383 9.80104C64.8045 9.27117 63.7031 9.00342 62.4679 9.00342C58.2638 9.00342 52.9301 11.8924 47.4503 16.7772C50.274 19.5762 53.0752 22.8229 55.7527 26.433C60.4136 26.928 64.7572 27.7403 68.6689 28.8147ZM38.7866 26.0618C40.8139 25.9414 42.8467 25.8368 44.9606 25.8368C47.0745 25.8368 49.185 25.9425 51.2122 26.0618C49.1782 23.4979 47.0902 21.1557 45.0011 19.0823C42.912 21.1557 40.8229 23.4979 38.7866 26.0618ZM45 60.75C48.1061 60.75 51.0795 60.6139 53.9077 60.3653C55.6166 57.9837 57.2693 55.4547 58.8263 52.8064C60.3484 50.22 61.7254 47.6022 62.955 45C61.7254 42.3979 60.3484 39.7812 58.8274 37.1959C57.2692 34.5465 55.6177 32.0187 53.9077 29.637C51.0806 29.3862 48.1073 29.25 45 29.25C41.8927 29.25 38.9183 29.3862 36.09 29.6359C34.3789 32.0175 32.7251 34.5465 31.167 37.1948C29.646 39.7812 28.269 42.399 27.0394 45.0012C28.269 47.6033 29.6449 50.22 31.1659 52.8053C32.724 55.4535 34.3766 57.9825 36.0866 60.3642C38.916 60.6139 41.8916 60.75 45 60.75ZM64.7393 40.9647C66.0049 37.917 67.0523 34.9245 67.851 32.0625C64.9789 31.2728 61.8064 30.6203 58.3695 30.1422C59.526 31.86 60.6521 33.6409 61.7355 35.4837C62.8088 37.305 63.8066 39.1365 64.7393 40.9647ZM25.2551 40.9658C26.1866 39.1377 27.1856 37.3062 28.2566 35.4837C29.3411 33.6409 30.4684 31.8612 31.626 30.1433C28.1891 30.6203 25.0166 31.2739 22.1445 32.0637C22.9433 34.9257 23.9906 37.917 25.2551 40.9658ZM71.0865 56.9498C80.172 53.8718 85.5 49.3493 85.5 45C85.5 40.6508 80.172 36.1283 71.0865 33.0503C70.0144 36.8809 68.5339 40.9062 66.6765 44.9989C68.5339 49.0928 70.0144 53.118 71.0865 56.9498ZM18.9112 56.9487C19.9823 53.1192 21.4616 49.0939 23.319 45.0023C21.4616 40.9095 19.9811 36.8832 18.9101 33.0525C9.82575 36.1305 4.5 40.6519 4.5 45C4.5 49.3493 9.82687 53.8707 18.9112 56.9487ZM58.3695 59.8579C61.8064 59.3809 64.9789 58.7284 67.851 57.9375C67.0511 55.0755 66.0038 52.083 64.7393 49.0343C63.8066 50.8624 62.8076 52.6939 61.7355 54.5164C60.6521 56.3592 59.526 58.14 58.3695 59.8579ZM31.6226 59.8568C30.4661 58.1389 29.34 56.3592 28.2555 54.5175C27.1845 52.6962 26.1866 50.8658 25.2551 49.0388C23.9906 52.0853 22.9444 55.0767 22.1456 57.9375C25.0166 58.7262 28.188 59.3787 31.6226 59.8568ZM27.5333 81.0034C31.7396 81.0034 37.0744 78.1122 42.5542 73.2252C39.7271 70.425 36.9236 67.1772 34.2427 63.5648C29.5819 63.0709 25.2405 62.2587 21.33 61.1843C20.1105 66.6945 19.8911 71.5635 20.8552 75.1658C21.5055 77.5958 22.653 79.2912 24.264 80.2058C25.1955 80.7357 26.2969 81.0034 27.5333 81.0034ZM62.4679 80.9967C63.7043 80.9967 64.8034 80.7289 65.7383 80.1991C67.347 79.2867 68.4911 77.5947 69.1403 75.1669C70.1055 71.5635 69.8861 66.6945 68.6666 61.1854C64.755 62.2598 60.4125 63.072 55.7505 63.5659C53.073 67.1772 50.2706 70.4239 47.4469 73.224C52.9268 78.1065 58.2615 80.9955 62.4679 80.9967ZM45 70.92C47.0891 68.8455 49.1771 66.5022 51.2122 63.9383C49.1861 64.0587 47.2084 64.3129 45.0934 64.3129C42.9772 64.3129 40.8105 64.0587 38.7832 63.9383C40.8195 66.5033 42.9097 68.8467 45 70.92ZM27.1305 4.58104C25.1066 4.58104 23.6599 4.96129 22.0421 5.87817C19.3433 7.40929 17.4802 10.0305 16.506 13.6699C15.426 17.7053 15.5194 23.0097 16.7715 29.061C6.09637 32.8377 0 38.6157 0 45C0 51.3855 6.0975 57.1624 16.7726 60.939C15.5205 66.9904 15.4271 72.2948 16.5082 76.3302C17.4814 79.9673 19.3432 82.5885 22.0444 84.1219C23.6644 85.0399 25.6106 85.4303 27.6334 85.4303C32.6813 85.4303 38.6055 82.5784 45.0011 77.031C51.3956 82.5728 57.42 85.4955 62.4668 85.4967C64.4906 85.4967 66.3379 85.032 67.9579 84.114C70.6545 82.5852 72.5153 79.9673 73.4884 76.3324C74.5695 72.2959 74.4761 66.9915 73.224 60.9413C83.9014 57.1635 90 51.3855 90 45C90 38.6145 83.9025 32.8365 73.2251 29.0599C74.4784 23.0074 74.5706 17.703 73.4895 13.6677C72.5152 10.0328 70.6534 7.41492 67.9556 5.88604C66.3367 4.96917 64.4895 4.50342 62.4668 4.50342C57.4211 4.50342 51.3979 7.42729 45.0023 12.9713C38.6055 7.42279 32.553 4.57767 27.504 4.57767L27.1305 4.58104ZM22.185 27.4242C21.6652 24.8097 21.3165 22.3594 21.2974 20.2107C21.2805 18.2757 21.546 16.5915 21.9386 15.1245C22.509 12.996 23.4776 11.5313 24.8175 10.7708C25.578 10.3388 26.505 10.0463 27.5434 10.0463C31.122 10.0463 35.8313 12.4965 40.9118 16.8345C38.4131 19.3917 35.9707 22.2559 33.6375 25.3677C29.6044 25.8177 25.7591 26.5073 22.185 27.4242ZM49.0928 16.8368C54.1721 12.5022 58.8926 10.1284 62.4668 10.1284C63.5063 10.1284 64.4209 10.3478 65.1825 10.7798C66.5201 11.538 67.4876 12.9994 68.0569 15.1234C69.0401 18.2937 68.913 22.5079 67.8116 27.423C64.2375 26.5073 60.3934 25.8165 56.3614 25.3688C54.0292 22.2582 51.5891 19.3939 49.0928 16.8368ZM41.2571 24.8175C42.4901 23.355 43.7422 21.9713 45.0011 20.6798C46.26 21.9713 47.511 23.355 48.7429 24.8175C47.484 24.7725 46.2319 24.75 45 24.75C43.7681 24.75 42.5171 24.7725 41.2571 24.8175ZM36.7031 30.7125C39.4087 30.4887 42.1965 30.3289 45 30.3289C47.8024 30.3289 50.5901 30.4887 53.2946 30.7125C54.9056 32.9839 56.4401 35.3543 57.8576 37.7652C59.2324 40.1029 60.5273 42.534 61.7085 44.9989C60.5261 47.4649 59.2313 49.8972 57.8565 52.2349C56.4379 54.6469 54.9045 57.0162 53.2935 59.2875C50.5901 59.5114 47.8024 59.8118 45 59.8118C42.1954 59.8118 39.4065 59.5103 36.6998 59.2864C35.0876 57.0162 33.5531 54.6458 32.1345 52.2338C30.7597 49.8972 29.466 47.466 28.2847 45C29.466 42.534 30.7609 40.1018 32.1356 37.764C33.5554 35.3532 35.091 32.9828 36.7031 30.7125ZM64.5998 38.277C63.9821 37.1318 63.3487 36.0068 62.7064 34.9133C62.0651 33.8232 61.3935 32.7285 60.6982 31.6407C62.694 31.9804 64.6189 32.3865 66.4515 32.8557C65.9261 34.6174 65.3063 36.4309 64.5998 38.277ZM23.544 32.8557C25.3766 32.3865 27.3015 31.9804 29.2972 31.6407C28.6009 32.7285 27.9293 33.8232 27.288 34.9122C26.6456 36.0057 26.0123 37.1307 25.3946 38.2759C24.6881 36.432 24.0694 34.6185 23.544 32.8557ZM67.9106 44.9989C69.5025 41.4417 70.821 37.9204 71.8369 34.5072C79.6028 37.341 84.375 41.3112 84.375 45C84.375 48.6889 79.6028 52.659 71.8369 55.4929C70.8199 52.0785 69.5025 48.5562 67.9106 44.9989ZM18.1597 55.4918C10.3961 52.6579 5.625 48.6878 5.625 45C5.625 41.3123 10.3961 37.3422 18.1586 34.5083C19.1745 37.9227 20.4919 41.4439 22.0837 45.0012C20.493 48.5573 19.1756 52.0785 18.1597 55.4918ZM60.6971 58.3605C61.3924 57.2715 62.0651 56.1769 62.7052 55.0879C63.3487 53.9944 63.9821 52.8683 64.5998 51.723C65.3063 53.5692 65.925 55.3838 66.4515 57.1467C64.6178 57.6135 62.6929 58.0208 60.6971 58.3605ZM23.5451 57.1444C24.0705 55.3827 24.6892 53.5703 25.3946 51.7264C26.0111 52.8705 26.6445 53.9955 27.2869 55.0879C27.927 56.1769 28.5986 57.2704 29.295 58.3594C27.3004 58.0185 25.3766 57.6124 23.5451 57.1444ZM27.5333 79.8784C26.4938 79.8784 25.5803 79.659 24.8186 79.2271C23.4799 78.4665 22.5112 77.0029 21.942 74.8744C21.0071 71.6738 21.1129 67.4584 22.1873 62.5748C25.7603 63.4905 29.6032 64.1813 33.6341 64.629C35.9685 67.7408 38.4109 70.6062 40.9106 73.1656C35.8313 77.5047 31.1096 79.8795 27.5333 79.8784ZM56.3602 64.6313C60.3923 64.1824 64.2364 63.4928 67.8105 62.577C69.0536 67.9095 69.1515 72.1598 68.0546 74.8755C67.4865 77.0007 66.5201 78.462 65.1836 79.2192C64.4209 79.6512 63.5074 79.8705 62.469 79.8705V80.9955L62.4679 79.8705C58.8904 79.8705 54.1688 77.4968 49.0905 73.1644C51.588 70.6073 54.0281 67.743 56.3602 64.6313ZM45 69.3225C43.74 68.031 42.4867 66.6462 41.2537 65.1825C42.5137 65.2275 43.767 65.25 45 65.25C46.2319 65.25 47.484 65.2275 48.7429 65.1825C47.511 66.6462 46.2589 68.031 45 69.3225Z" fill="#4E7AB5"/>
<path d="M24.926 111L24.626 108.108C24.578 107.596 24.478 107.18 24.326 106.86C24.174 106.532 23.942 106.292 23.63 106.14C23.318 105.98 22.902 105.9 22.382 105.9L18.914 105.888V103.02L22.526 103.008C23.31 103.008 23.874 102.836 24.218 102.492C24.562 102.148 24.734 101.632 24.734 100.944V100.704C24.734 100.024 24.562 99.516 24.218 99.18C23.882 98.836 23.314 98.664 22.514 98.664H18.89V95.664H23.054C24.934 95.664 26.306 96.028 27.17 96.756C28.042 97.484 28.478 98.532 28.478 99.9V100.212C28.478 101.244 28.214 102.048 27.686 102.624C27.158 103.2 26.354 103.528 25.274 103.608V104.136L24.506 103.62C25.434 103.684 26.154 103.876 26.666 104.196C27.178 104.516 27.554 104.964 27.794 105.54C28.042 106.108 28.222 106.816 28.334 107.664L28.778 111H24.926ZM16.31 111V95.664H19.958V104.052L19.982 105.444V111H16.31ZM36.2245 111.3C34.0805 111.3 32.4965 110.824 31.4725 109.872C30.4485 108.912 29.9365 107.516 29.9365 105.684V104.46C29.9365 102.652 30.4165 101.268 31.3765 100.308C32.3365 99.34 33.7325 98.856 35.5645 98.856C36.7965 98.856 37.8205 99.068 38.6365 99.492C39.4605 99.908 40.0765 100.504 40.4845 101.28C40.9005 102.056 41.1085 102.988 41.1085 104.076V104.472C41.1085 104.776 41.0925 105.088 41.0605 105.408C41.0365 105.72 41.0005 106.012 40.9525 106.284H37.6405C37.6725 105.82 37.6925 105.384 37.7005 104.976C37.7085 104.56 37.7125 104.184 37.7125 103.848C37.7125 103.36 37.6365 102.952 37.4845 102.624C37.3325 102.288 37.0965 102.032 36.7765 101.856C36.4645 101.68 36.0605 101.592 35.5645 101.592C34.8285 101.592 34.2885 101.792 33.9445 102.192C33.6085 102.584 33.4405 103.144 33.4405 103.872V104.952L33.4645 105.348V106.188C33.4645 106.492 33.5125 106.78 33.6085 107.052C33.7125 107.324 33.8885 107.564 34.1365 107.772C34.3925 107.972 34.7405 108.132 35.1805 108.252C35.6285 108.364 36.1965 108.42 36.8845 108.42C37.6125 108.42 38.3125 108.352 38.9845 108.216C39.6565 108.072 40.3005 107.88 40.9165 107.64L40.6165 110.4C40.0725 110.68 39.4285 110.9 38.6845 111.06C37.9405 111.22 37.1205 111.3 36.2245 111.3ZM31.8805 106.284V104.016H40.2085V106.284H31.8805ZM49.7808 111L49.8888 108.048L49.8048 107.868V104.184L49.7808 103.704C49.7808 103.048 49.5888 102.564 49.2048 102.252C48.8208 101.94 48.1768 101.784 47.2728 101.784C46.4808 101.784 45.7288 101.884 45.0168 102.084C44.3048 102.284 43.6328 102.512 43.0008 102.768L43.3128 99.924C43.6888 99.748 44.1088 99.584 44.5728 99.432C45.0448 99.272 45.5648 99.144 46.1328 99.048C46.7008 98.952 47.3088 98.904 47.9568 98.904C48.9888 98.904 49.8528 99.024 50.5488 99.264C51.2448 99.504 51.8008 99.844 52.2168 100.284C52.6328 100.724 52.9328 101.252 53.1168 101.868C53.3008 102.476 53.3928 103.148 53.3928 103.884V111H49.7808ZM46.0248 111.276C44.8488 111.276 43.9568 110.98 43.3488 110.388C42.7408 109.796 42.4368 108.952 42.4368 107.856V107.532C42.4368 106.372 42.7928 105.516 43.5048 104.964C44.2248 104.404 45.3648 104.024 46.9248 103.824L50.0928 103.404L50.3088 105.612L47.5008 106.02C46.9328 106.092 46.5328 106.224 46.3008 106.416C46.0688 106.608 45.9528 106.892 45.9528 107.268V107.352C45.9528 107.712 46.0688 108 46.3008 108.216C46.5328 108.424 46.9048 108.528 47.4168 108.528C47.8648 108.528 48.2488 108.46 48.5688 108.324C48.8968 108.188 49.1648 108.012 49.3728 107.796C49.5808 107.572 49.7368 107.324 49.8408 107.052L50.3568 108.54H49.7568C49.6288 109.052 49.4288 109.516 49.1568 109.932C48.8928 110.348 48.5088 110.676 48.0048 110.916C47.5008 111.156 46.8408 111.276 46.0248 111.276ZM60.7456 111.312C58.8736 111.312 57.4856 110.82 56.5816 109.836C55.6776 108.852 55.2256 107.468 55.2256 105.684V104.46C55.2256 102.708 55.6776 101.34 56.5816 100.356C57.4856 99.372 58.8696 98.88 60.7336 98.88C61.2136 98.88 61.6616 98.916 62.0776 98.988C62.4936 99.052 62.8776 99.144 63.2296 99.264C63.5816 99.384 63.8896 99.512 64.1536 99.648L64.4536 102.684C64.0616 102.46 63.6296 102.276 63.1576 102.132C62.6856 101.98 62.1536 101.904 61.5616 101.904C60.6336 101.904 59.9616 102.128 59.5456 102.576C59.1296 103.024 58.9216 103.672 58.9216 104.52V105.54C58.9216 106.404 59.1416 107.068 59.5816 107.532C60.0216 107.996 60.7096 108.228 61.6456 108.228C62.2296 108.228 62.7536 108.16 63.2176 108.024C63.6896 107.88 64.1376 107.696 64.5616 107.472L64.2736 110.52C63.8576 110.744 63.3456 110.932 62.7376 111.084C62.1296 111.236 61.4656 111.312 60.7456 111.312ZM71.2955 111.264C70.2475 111.264 69.4115 111.108 68.7875 110.796C68.1715 110.476 67.7275 110 67.4555 109.368C67.1835 108.736 67.0475 107.956 67.0475 107.028V100.44H70.6955V106.44C70.6955 107.016 70.8235 107.44 71.0795 107.712C71.3435 107.976 71.8315 108.108 72.5435 108.108C72.9355 108.108 73.3235 108.064 73.7075 107.976C74.0915 107.888 74.4395 107.776 74.7515 107.64L74.4395 110.676C74.0315 110.852 73.5595 110.992 73.0235 111.096C72.4955 111.208 71.9195 111.264 71.2955 111.264ZM65.4635 102.132V99.252H74.6435L74.3195 102.132H65.4635ZM67.0955 99.516L67.0835 96.468L70.7195 96.12L70.5875 99.516H67.0955Z" fill="black"/>
</svg>
