<svg width="96" height="122" viewBox="0 0 96 122" fill="none" xmlns="http://www.w3.org/2000/svg">
<path d="M46 8C32.766 8 22 22.54 22 40.41C22 50.078 25.164 58.748 30.156 64.682C30.06 65.108 30 65.546 30 66C30 69.314 32.686 72 36 72C39.314 72 42 69.314 42 66C42 62.686 39.314 60 36 60C35.37 60 34.776 60.124 34.206 60.304C30.412 55.462 28 48.35 28 40.41C28 25.848 36.074 14 46 14C53.674 14 60.222 21.094 62.808 31.036C65.052 31.728 67.282 32.6 69.468 33.652C67.158 19.016 57.518 8 46 8Z" fill="#7E57C2"/>
<path d="M71.014 40.168C63.12 35.384 54.266 33.284 46.65 34.25C45.55 32.888 43.886 32 42 32C38.686 32 36 34.686 36 38C36 41.314 38.686 44 42 44C44.544 44 46.706 42.41 47.578 40.176C53.814 39.418 61.202 41.238 67.904 45.302C80.71 53.064 87.244 66.44 82.468 75.124C80.814 78.132 77.896 80.268 74.032 81.304C69.46 82.526 64.018 82.092 58.578 80.248C56.9 81.792 55.08 83.244 53.128 84.584C58.232 86.818 63.52 87.992 68.466 87.992C70.946 87.992 73.342 87.698 75.584 87.098C81.066 85.632 85.266 82.49 87.726 78.014C94.032 66.552 86.534 49.574 71.014 40.168Z" fill="#7E57C2"/>
<path d="M70 57.984C70 54.68 67.314 52 64 52C60.686 52 58 54.68 58 57.984C58 59.322 58.456 60.546 59.2 61.542C56.642 67.146 51.712 72.676 45.076 76.698C37.346 81.386 28.706 83.102 21.966 81.302C18.102 80.266 15.184 78.13 13.53 75.122C10.126 68.934 12.488 60.37 18.75 53.146C18.104 50.858 17.626 48.466 17.338 45.996C7.19796 55.59 3.11996 68.642 8.27396 78.014C10.734 82.49 14.934 85.632 20.416 87.098C22.658 87.698 25.052 87.992 27.534 87.992C34.226 87.992 41.548 85.856 48.186 81.832C55.858 77.182 61.552 70.678 64.604 63.908C67.63 63.602 70 61.082 70 57.984Z" fill="#7E57C2"/>
<path d="M24.5627 117L24.2627 114.108C24.2147 113.596 24.1147 113.18 23.9627 112.86C23.8107 112.532 23.5787 112.292 23.2667 112.14C22.9547 111.98 22.5387 111.9 22.0187 111.9L18.5507 111.888V109.02L22.1627 109.008C22.9467 109.008 23.5107 108.836 23.8547 108.492C24.1987 108.148 24.3707 107.632 24.3707 106.944V106.704C24.3707 106.024 24.1987 105.516 23.8547 105.18C23.5187 104.836 22.9507 104.664 22.1507 104.664H18.5267V101.664H22.6907C24.5707 101.664 25.9427 102.028 26.8067 102.756C27.6787 103.484 28.1147 104.532 28.1147 105.9V106.212C28.1147 107.244 27.8507 108.048 27.3227 108.624C26.7947 109.2 25.9907 109.528 24.9107 109.608V110.136L24.1427 109.62C25.0707 109.684 25.7907 109.876 26.3027 110.196C26.8147 110.516 27.1907 110.964 27.4307 111.54C27.6787 112.108 27.8587 112.816 27.9707 113.664L28.4147 117H24.5627ZM15.9467 117V101.664H19.5947V110.052L19.6187 111.444V117H15.9467ZM35.8613 117.3C33.7173 117.3 32.1333 116.824 31.1093 115.872C30.0853 114.912 29.5732 113.516 29.5732 111.684V110.46C29.5732 108.652 30.0533 107.268 31.0133 106.308C31.9733 105.34 33.3693 104.856 35.2013 104.856C36.4333 104.856 37.4573 105.068 38.2733 105.492C39.0973 105.908 39.7133 106.504 40.1213 107.28C40.5373 108.056 40.7453 108.988 40.7453 110.076V110.472C40.7453 110.776 40.7293 111.088 40.6973 111.408C40.6733 111.72 40.6373 112.012 40.5893 112.284H37.2773C37.3093 111.82 37.3293 111.384 37.3373 110.976C37.3453 110.56 37.3493 110.184 37.3493 109.848C37.3493 109.36 37.2733 108.952 37.1213 108.624C36.9693 108.288 36.7333 108.032 36.4133 107.856C36.1013 107.68 35.6973 107.592 35.2013 107.592C34.4653 107.592 33.9253 107.792 33.5813 108.192C33.2453 108.584 33.0773 109.144 33.0773 109.872V110.952L33.1013 111.348V112.188C33.1013 112.492 33.1493 112.78 33.2453 113.052C33.3493 113.324 33.5253 113.564 33.7733 113.772C34.0293 113.972 34.3773 114.132 34.8173 114.252C35.2653 114.364 35.8333 114.42 36.5213 114.42C37.2493 114.42 37.9493 114.352 38.6213 114.216C39.2933 114.072 39.9373 113.88 40.5533 113.64L40.2533 116.4C39.7093 116.68 39.0653 116.9 38.3213 117.06C37.5773 117.22 36.7573 117.3 35.8613 117.3ZM31.5173 112.284V110.016H39.8453V112.284H31.5173ZM46.5593 117.276C45.1833 117.276 44.1393 116.824 43.4273 115.92C42.7233 115.016 42.3713 113.672 42.3713 111.888V110.436C42.3713 108.62 42.7273 107.248 43.4393 106.32C44.1513 105.392 45.2273 104.928 46.6673 104.928C47.3713 104.928 47.9593 105.044 48.4313 105.276C48.9033 105.508 49.2793 105.836 49.5593 106.26C49.8473 106.684 50.0473 107.184 50.1593 107.76H51.1553L50.2913 110.136C50.2753 109.648 50.1793 109.236 50.0033 108.9C49.8273 108.564 49.5793 108.308 49.2593 108.132C48.9473 107.948 48.5673 107.856 48.1193 107.856C47.4473 107.856 46.9353 108.052 46.5833 108.444C46.2313 108.836 46.0553 109.424 46.0553 110.208V111.9C46.0553 112.676 46.2313 113.264 46.5833 113.664C46.9433 114.056 47.4713 114.252 48.1673 114.252C48.5353 114.252 48.8633 114.184 49.1513 114.048C49.4473 113.912 49.6953 113.724 49.8953 113.484C50.1033 113.244 50.2553 112.972 50.3513 112.668L51.2513 114.444H50.2193C50.0993 114.972 49.8993 115.452 49.6193 115.884C49.3393 116.316 48.9513 116.656 48.4553 116.904C47.9593 117.152 47.3273 117.276 46.5593 117.276ZM50.2433 117L50.3513 114.012L50.2913 113.388V108.612V108.096L50.2433 104.676V101.148H53.8913V117H50.2433ZM59.913 105.204V112.14C59.913 112.572 59.969 112.948 60.081 113.268C60.193 113.58 60.381 113.824 60.645 114C60.909 114.168 61.269 114.252 61.725 114.252C62.109 114.252 62.441 114.184 62.721 114.048C63.009 113.912 63.249 113.728 63.441 113.496C63.641 113.264 63.789 113.008 63.885 112.728L64.449 114.444H63.825C63.697 114.972 63.485 115.452 63.189 115.884C62.901 116.316 62.501 116.656 61.989 116.904C61.485 117.152 60.837 117.276 60.045 117.276C59.173 117.276 58.453 117.108 57.885 116.772C57.325 116.428 56.909 115.92 56.637 115.248C56.373 114.576 56.241 113.736 56.241 112.728V105.204H59.913ZM67.497 105.204V117H63.849L63.969 114.048L63.825 113.712V105.204H67.497ZM68.9588 117L72.3668 110.364V111.36L69.0428 105.204H72.9908L74.9828 109.332H75.2108L77.1908 105.204H81.1268L77.8148 111.36V110.364L81.2228 117H77.2748L75.2108 112.668H74.9828L72.9068 117H68.9588Z" fill="black"/>
</svg>
