<svg width="123" height="122" viewBox="0 0 123 122" fill="none" xmlns="http://www.w3.org/2000/svg">
<path d="M97.5 12H25.5V84H97.5V12Z" fill="#1976D2"/>
<path d="M68.48 44H41.954V50.528H51.468V80H59.006V50.528H68.48V44Z" fill="white"/>
<path d="M91.8879 52.168C91.8879 52.168 88.3139 49.784 84.2739 49.784C80.2339 49.784 78.7799 51.704 78.7799 53.756C78.7799 59.052 93.5419 58.522 93.5419 69.18C93.5419 85.598 71.0339 78.316 71.0339 78.316V70.44C71.0339 70.44 75.3379 73.684 80.4999 73.684C85.6619 73.684 85.4659 70.308 85.4659 69.844C85.4659 64.946 70.8359 64.946 70.8359 54.088C70.8359 39.326 92.1519 45.15 92.1519 45.15L91.8879 52.168Z" fill="white"/>
<path d="M8.99672 117V102.384H12.7527V117H8.99672ZM4.76072 104.796V101.664H16.9767V104.796H4.76072ZM25.2532 114.06L23.2852 114.912L25.9372 105.204H29.6932L24.8812 121.128H21.2092L23.0452 115.128L24.7732 116.496H20.7052L17.5132 105.204H21.2932L23.3332 114.06H25.2532ZM38.354 117.276C37.65 117.276 37.058 117.16 36.578 116.928C36.098 116.696 35.714 116.368 35.426 115.944C35.146 115.512 34.946 115.012 34.826 114.444H33.878L34.742 111.972C34.758 112.46 34.85 112.872 35.018 113.208C35.194 113.544 35.442 113.804 35.762 113.988C36.09 114.164 36.478 114.252 36.926 114.252C37.598 114.252 38.106 114.056 38.45 113.664C38.802 113.264 38.978 112.672 38.978 111.888V110.208C38.978 109.424 38.806 108.836 38.462 108.444C38.126 108.052 37.622 107.856 36.95 107.856C36.574 107.856 36.23 107.928 35.918 108.072C35.614 108.216 35.354 108.408 35.138 108.648C34.93 108.88 34.778 109.148 34.682 109.452L33.842 107.76H34.814C34.934 107.232 35.134 106.756 35.414 106.332C35.694 105.9 36.082 105.56 36.578 105.312C37.074 105.056 37.706 104.928 38.474 104.928C39.85 104.928 40.89 105.38 41.594 106.284C42.306 107.18 42.662 108.528 42.662 110.328V111.768C42.662 113.584 42.306 114.956 41.594 115.884C40.89 116.812 39.81 117.276 38.354 117.276ZM31.142 121.128V105.204H34.79L34.67 108.384L34.742 108.804V113.34L34.694 113.964L34.79 117.12V121.128H31.142ZM50.5917 117.3C48.4477 117.3 46.8637 116.824 45.8397 115.872C44.8157 114.912 44.3037 113.516 44.3037 111.684V110.46C44.3037 108.652 44.7837 107.268 45.7437 106.308C46.7037 105.34 48.0997 104.856 49.9317 104.856C51.1637 104.856 52.1877 105.068 53.0037 105.492C53.8277 105.908 54.4437 106.504 54.8517 107.28C55.2677 108.056 55.4757 108.988 55.4757 110.076V110.472C55.4757 110.776 55.4597 111.088 55.4277 111.408C55.4037 111.72 55.3677 112.012 55.3197 112.284H52.0077C52.0397 111.82 52.0597 111.384 52.0677 110.976C52.0757 110.56 52.0797 110.184 52.0797 109.848C52.0797 109.36 52.0037 108.952 51.8517 108.624C51.6997 108.288 51.4637 108.032 51.1437 107.856C50.8317 107.68 50.4277 107.592 49.9317 107.592C49.1957 107.592 48.6557 107.792 48.3117 108.192C47.9757 108.584 47.8077 109.144 47.8077 109.872V110.952L47.8317 111.348V112.188C47.8317 112.492 47.8797 112.78 47.9757 113.052C48.0797 113.324 48.2557 113.564 48.5037 113.772C48.7597 113.972 49.1077 114.132 49.5477 114.252C49.9957 114.364 50.5637 114.42 51.2517 114.42C51.9797 114.42 52.6797 114.352 53.3517 114.216C54.0237 114.072 54.6677 113.88 55.2837 113.64L54.9837 116.4C54.4397 116.68 53.7957 116.9 53.0517 117.06C52.3077 117.22 51.4877 117.3 50.5917 117.3ZM46.2477 112.284V110.016H54.5757V112.284H46.2477ZM62.3943 117.324C61.6823 117.324 61.0143 117.276 60.3903 117.18C59.7743 117.092 59.2103 116.976 58.6983 116.832C58.1943 116.68 57.7503 116.524 57.3663 116.364L57.0423 112.908C57.6743 113.204 58.4223 113.48 59.2863 113.736C60.1503 113.984 61.0663 114.108 62.0343 114.108C62.9703 114.108 63.6343 113.992 64.0263 113.76C64.4263 113.52 64.6263 113.148 64.6263 112.644V112.56C64.6263 112.224 64.5343 111.952 64.3503 111.744C64.1743 111.528 63.8743 111.332 63.4503 111.156C63.0343 110.972 62.4703 110.776 61.7583 110.568C60.6863 110.248 59.7903 109.892 59.0703 109.5C58.3583 109.108 57.8263 108.62 57.4743 108.036C57.1223 107.444 56.9463 106.696 56.9463 105.792V105.636C56.9463 104.244 57.4183 103.18 58.3623 102.444C59.3143 101.708 60.7103 101.34 62.5503 101.34C63.6543 101.34 64.6063 101.436 65.4063 101.628C66.2143 101.82 66.8983 102.048 67.4583 102.312L67.7823 105.528C67.1663 105.232 66.4663 104.984 65.6823 104.784C64.9063 104.576 64.0743 104.472 63.1863 104.472C62.5623 104.472 62.0703 104.524 61.7103 104.628C61.3583 104.732 61.1103 104.884 60.9663 105.084C60.8223 105.276 60.7503 105.512 60.7503 105.792V105.84C60.7503 106.128 60.8303 106.38 60.9903 106.596C61.1583 106.812 61.4543 107.02 61.8783 107.22C62.3103 107.42 62.9223 107.636 63.7143 107.868C64.7783 108.18 65.6583 108.516 66.3543 108.876C67.0583 109.228 67.5823 109.688 67.9263 110.256C68.2783 110.816 68.4543 111.564 68.4543 112.5V112.692C68.4543 114.236 67.9543 115.396 66.9543 116.172C65.9543 116.94 64.4343 117.324 62.3943 117.324ZM75.5347 117.312C73.6627 117.312 72.2747 116.82 71.3707 115.836C70.4667 114.852 70.0147 113.468 70.0147 111.684V110.46C70.0147 108.708 70.4667 107.34 71.3707 106.356C72.2747 105.372 73.6587 104.88 75.5227 104.88C76.0027 104.88 76.4507 104.916 76.8667 104.988C77.2827 105.052 77.6667 105.144 78.0187 105.264C78.3707 105.384 78.6787 105.512 78.9427 105.648L79.2427 108.684C78.8507 108.46 78.4187 108.276 77.9467 108.132C77.4747 107.98 76.9427 107.904 76.3507 107.904C75.4227 107.904 74.7507 108.128 74.3347 108.576C73.9187 109.024 73.7107 109.672 73.7107 110.52V111.54C73.7107 112.404 73.9307 113.068 74.3707 113.532C74.8107 113.996 75.4987 114.228 76.4347 114.228C77.0187 114.228 77.5427 114.16 78.0067 114.024C78.4787 113.88 78.9267 113.696 79.3507 113.472L79.0627 116.52C78.6467 116.744 78.1347 116.932 77.5267 117.084C76.9187 117.236 76.2547 117.312 75.5347 117.312ZM84.781 110.376L83.773 108.144H84.637C84.829 107.168 85.201 106.404 85.753 105.852C86.313 105.292 87.101 105.012 88.117 105.012C88.293 105.012 88.453 105.024 88.597 105.048C88.749 105.072 88.893 105.1 89.029 105.132L89.209 108.84C89.041 108.792 88.845 108.76 88.621 108.744C88.397 108.72 88.169 108.708 87.937 108.708C87.153 108.708 86.493 108.856 85.957 109.152C85.421 109.44 85.029 109.848 84.781 110.376ZM81.181 117V105.204H84.637L84.481 108.972L84.853 109.02V117H81.181ZM90.7087 117V105.204H94.3807V117H90.7087ZM92.5447 104.088C91.8567 104.088 91.3567 103.932 91.0447 103.62C90.7327 103.3 90.5767 102.872 90.5767 102.336V102.252C90.5767 101.716 90.7327 101.292 91.0447 100.98C91.3567 100.668 91.8567 100.512 92.5447 100.512C93.2167 100.512 93.7087 100.668 94.0207 100.98C94.3407 101.292 94.5007 101.716 94.5007 102.252V102.336C94.5007 102.88 94.3407 103.308 94.0207 103.62C93.7087 103.932 93.2167 104.088 92.5447 104.088ZM104.049 117.276C103.345 117.276 102.753 117.16 102.273 116.928C101.793 116.696 101.409 116.368 101.121 115.944C100.841 115.512 100.641 115.012 100.521 114.444H99.5733L100.437 111.972C100.453 112.46 100.545 112.872 100.713 113.208C100.889 113.544 101.137 113.804 101.457 113.988C101.785 114.164 102.173 114.252 102.621 114.252C103.293 114.252 103.801 114.056 104.145 113.664C104.497 113.264 104.673 112.672 104.673 111.888V110.208C104.673 109.424 104.501 108.836 104.157 108.444C103.821 108.052 103.317 107.856 102.645 107.856C102.269 107.856 101.925 107.928 101.613 108.072C101.309 108.216 101.049 108.408 100.833 108.648C100.625 108.88 100.473 109.148 100.377 109.452L99.5373 107.76H100.509C100.629 107.232 100.829 106.756 101.109 106.332C101.389 105.9 101.777 105.56 102.273 105.312C102.769 105.056 103.401 104.928 104.169 104.928C105.545 104.928 106.585 105.38 107.289 106.284C108.001 107.18 108.357 108.528 108.357 110.328V111.768C108.357 113.584 108.001 114.956 107.289 115.884C106.585 116.812 105.505 117.276 104.049 117.276ZM96.8373 121.128V105.204H100.485L100.365 108.384L100.437 108.804V113.34L100.389 113.964L100.485 117.12V121.128H96.8373ZM115.077 117.264C114.029 117.264 113.193 117.108 112.569 116.796C111.953 116.476 111.509 116 111.237 115.368C110.965 114.736 110.829 113.956 110.829 113.028V106.44H114.477V112.44C114.477 113.016 114.605 113.44 114.861 113.712C115.125 113.976 115.613 114.108 116.325 114.108C116.717 114.108 117.105 114.064 117.489 113.976C117.873 113.888 118.221 113.776 118.533 113.64L118.221 116.676C117.813 116.852 117.341 116.992 116.805 117.096C116.277 117.208 115.701 117.264 115.077 117.264ZM109.245 108.132V105.252H118.425L118.101 108.132H109.245ZM110.877 105.516L110.865 102.468L114.501 102.12L114.369 105.516H110.877Z" fill="black"/>
</svg>
